<svg width="360" height="360" viewBox="0 0 360 360" fill="none" xmlns="http://www.w3.org/2000/svg">
<g clip-path="url(#clip0_1359_3796)">
<rect width="360" height="360" rx="180" fill="url(#paint0_linear_1359_3796)"/>
<g clip-path="url(#clip1_1359_3796)">
<path d="M54.0277 113.658C51.8254 114.248 49.9609 114.151 48.434 113.367C46.901 112.561 45.8363 111.045 45.24 108.819L40.8422 92.4062L46.2668 90.9526L50.646 107.296C50.8572 108.084 51.2305 108.643 51.7658 108.971C52.2949 109.277 52.9187 109.333 53.6374 109.141C54.4951 108.911 55.1633 108.483 55.6418 107.858L58.1272 111.292C57.6764 111.835 57.0849 112.317 56.3526 112.737C55.6372 113.127 54.8623 113.434 54.0277 113.658ZM40.2947 101.908L39.1766 97.7348L52.147 94.2594L53.2651 98.4322L40.2947 101.908ZM65.3217 117.862C64.348 118.123 63.3456 118.23 62.3143 118.183C61.2831 118.136 60.3947 117.927 59.6491 117.556L60.5969 113.165C61.1136 113.424 61.6665 113.586 62.2556 113.652C62.8679 113.711 63.4406 113.67 63.9738 113.527C64.7388 113.322 65.2918 112.975 65.6329 112.486C66.0034 112.014 66.2623 111.311 66.4096 110.377L66.7683 107.821L67.0272 107.118L69.4151 89.1852L74.6311 87.7876L71.5015 109.907C71.3025 111.576 70.9238 112.944 70.3654 114.013C69.8303 115.076 69.134 115.909 68.2767 116.511C67.4426 117.107 66.4576 117.557 65.3217 117.862ZM66.8343 110.711L53.2803 93.5085L58.8788 92.0084L69.5395 105.923L66.8343 110.711ZM92.9899 103.218C91.4135 103.64 89.941 103.662 88.5723 103.283C87.2037 102.905 85.9938 102.098 84.9426 100.864C83.9084 99.601 83.0993 97.8797 82.5154 95.7006C81.9253 93.4983 81.7538 91.6062 82.0008 90.0244C82.2478 88.4425 82.8692 87.1455 83.8652 86.1332C84.8611 85.121 86.1821 84.3943 87.828 83.9533C89.5899 83.4812 91.275 83.4645 92.8833 83.9032C94.5086 84.3125 95.9195 85.1271 97.116 86.347C98.3357 87.5606 99.2064 89.1411 99.7282 91.0884C100.256 93.0589 100.295 94.8746 99.846 96.5355C99.4198 98.1902 98.6052 99.6012 97.4023 100.768C96.2225 101.929 94.7517 102.746 92.9899 103.218ZM83.665 112.649L76.8446 87.1945L82.0259 85.8061L83.0508 89.6312L84.4373 95.2229L86.2665 100.659L89.0897 111.195L83.665 112.649ZM90.8584 99.0183C91.7625 98.7761 92.5064 98.3531 93.09 97.7495C93.6969 97.1396 94.1064 96.3963 94.3187 95.5195C94.548 94.6133 94.5198 93.627 94.234 92.5606C93.9421 91.471 93.4734 90.6028 92.8279 89.9558C92.2057 89.3026 91.4793 88.8636 90.6488 88.6389C89.8416 88.4079 88.9859 88.4136 88.0818 88.6559C87.1777 88.8981 86.4222 89.3242 85.8154 89.934C85.2085 90.5438 84.7989 91.2872 84.5867 92.164C84.3744 93.0408 84.4142 94.024 84.7061 95.1136C84.9919 96.18 85.449 97.0514 86.0774 97.7277C86.6997 98.3809 87.4261 98.8199 88.2565 99.0446C89.087 99.2693 89.9543 99.2606 90.8584 99.0183ZM105.866 99.4694L100.853 80.7614L106.278 79.3079L111.291 98.0159L105.866 99.4694ZM102.867 77.4266C101.87 77.6937 100.981 77.6214 100.2 77.2095C99.4184 76.7977 98.9129 76.1629 98.683 75.3051C98.4532 74.4474 98.5736 73.6449 99.0442 72.8976C99.5149 72.1503 100.249 71.6432 101.245 71.3761C102.242 71.109 103.128 71.1697 103.903 71.5584C104.672 71.9239 105.171 72.5355 105.401 73.3932C105.643 74.2973 105.532 75.1346 105.068 75.9051C104.62 76.6461 103.887 77.1533 102.867 77.4266ZM122.609 74.6339C124.092 74.2363 125.494 74.1836 126.815 74.4758C128.153 74.7385 129.322 75.3942 130.324 76.4427C131.319 77.468 132.071 78.9312 132.581 80.8321L135.45 91.5423L130.026 92.9958L127.38 83.1202C126.976 81.6134 126.342 80.5907 125.477 80.0522C124.635 79.5074 123.612 79.3966 122.406 79.7196C121.548 79.9494 120.821 80.343 120.225 80.9002C119.646 81.4281 119.259 82.1158 119.064 82.9632C118.892 83.8044 118.961 84.8046 119.271 85.9637L121.75 95.2134L116.325 96.6669L111.312 77.9589L116.494 76.5706L117.882 81.7518L116.489 80.4479C116.826 79.0159 117.53 77.796 118.602 76.7883C119.673 75.7806 121.009 75.0625 122.609 74.6339ZM151.183 94.8552C149.421 95.3273 147.659 95.5636 145.895 95.5642C144.16 95.5817 142.633 95.3076 141.314 94.7418L142.426 90.2695C143.388 90.7074 144.522 90.9503 145.826 90.9983C147.161 91.0631 148.419 90.9372 149.601 90.6204C151.525 90.1048 152.801 89.3032 153.429 88.2157C154.08 87.1219 154.179 85.7288 153.726 84.0365L152.971 81.2199L152.061 76.4323L150.724 71.7218L149.643 67.6881L154.79 66.3091L158.964 81.8875C159.896 85.3649 159.678 88.1688 158.311 90.2992C156.944 92.4297 154.568 93.9483 151.183 94.8552ZM148.224 87.1505C146.486 87.6164 144.81 87.6679 143.197 87.305C141.601 86.9127 140.194 86.1591 138.976 85.0444C137.775 83.9003 136.932 82.4241 136.448 80.6159C135.957 78.7845 135.949 77.0847 136.423 75.5165C136.914 73.9189 137.756 72.5629 138.948 71.4483C140.164 70.3276 141.641 69.5343 143.379 69.0684C144.956 68.646 146.434 68.5979 147.813 68.924C149.186 69.2269 150.389 69.9605 151.422 71.125C152.448 72.2662 153.241 73.88 153.8 75.9664C154.352 78.0297 154.473 79.8236 154.161 81.3483C153.843 82.8499 153.168 84.0867 152.136 85.0588C151.105 86.0309 149.801 86.7281 148.224 87.1505ZM148.11 82.4107C149.06 82.156 149.857 81.7438 150.499 81.1742C151.135 80.5813 151.569 79.8812 151.8 79.0739C152.031 78.2667 152.025 77.411 151.783 76.5069C151.534 75.5796 151.111 74.8357 150.514 74.2752C149.91 73.6916 149.188 73.3137 148.347 73.1415C147.499 72.9462 146.6 72.9759 145.65 73.2305C144.699 73.4852 143.906 73.909 143.27 74.5019C142.627 75.0716 142.179 75.7631 141.925 76.5766C141.688 77.3607 141.693 78.2164 141.942 79.1437C142.184 80.0478 142.607 80.7917 143.211 81.3754C143.838 81.9528 144.575 82.3392 145.422 82.5345C146.263 82.7067 147.159 82.6654 148.11 82.4107Z" fill="#0EA5E9"/>
<path d="M199.427 74.6981C197.85 75.1205 196.378 75.1424 195.009 74.7637C193.641 74.385 192.431 73.5787 191.379 72.3447C190.345 71.0813 189.536 69.3601 188.952 67.181C188.362 64.9787 188.191 63.0866 188.438 61.5048C188.685 59.9229 189.306 58.6259 190.302 57.6136C191.298 56.6014 192.619 55.8747 194.265 55.4337C196.027 54.9616 197.712 54.9449 199.32 55.3836C200.945 55.7929 202.356 56.6074 203.553 57.8273C204.773 59.041 205.643 60.6215 206.165 62.5688C206.693 64.5393 206.732 66.355 206.283 68.0159C205.857 69.6706 205.042 71.0815 203.839 72.2486C202.659 73.4095 201.189 74.226 199.427 74.6981ZM190.102 84.1289L183.281 58.6748L188.463 57.2865L189.488 61.1116L190.874 66.7033L192.703 72.1391L195.527 82.6754L190.102 84.1289ZM197.295 70.4987C198.199 70.2564 198.943 69.8335 199.527 69.2299C200.134 68.62 200.543 67.8767 200.756 66.9999C200.985 66.0937 200.957 65.1074 200.671 64.041C200.379 62.9514 199.91 62.0831 199.265 61.4361C198.643 60.7829 197.916 60.344 197.086 60.1193C196.278 59.8883 195.423 59.894 194.519 60.1362C193.615 60.3785 192.859 60.8045 192.252 61.4144C191.645 62.0242 191.236 62.7676 191.023 63.6444C190.811 64.5212 190.851 65.5044 191.143 66.594C191.429 67.6603 191.886 68.5317 192.514 69.2081C193.137 69.8613 193.863 70.3003 194.693 70.525C195.524 70.7497 196.391 70.7409 197.295 70.4987ZM221.662 68.7402C219.529 69.3117 217.54 69.3976 215.693 68.9978C213.87 68.5919 212.325 67.7883 211.059 66.587C209.787 65.3626 208.902 63.8231 208.405 61.9685C207.902 60.0907 207.887 58.3183 208.36 56.6512C208.849 54.9546 209.739 53.4988 211.028 52.2837C212.311 51.0453 213.904 50.1715 215.804 49.6622C217.636 49.1714 219.387 49.1245 221.059 49.5214C222.748 49.8888 224.217 50.6879 225.466 51.9185C226.709 53.126 227.6 54.7382 228.141 56.755C228.197 56.9637 228.25 57.2102 228.301 57.4946C228.347 57.7558 228.389 58.0054 228.428 58.2435L213.232 62.3152L212.384 59.1508L224.728 55.8431L222.893 57.341C222.633 56.3674 222.209 55.574 221.622 54.961C221.035 54.3479 220.342 53.9375 219.541 53.7298C218.733 53.4989 217.866 53.5076 216.939 53.7561C216.011 54.0046 215.244 54.4337 214.638 55.0436C214.048 55.624 213.655 56.3379 213.46 57.1854C213.258 58.0096 213.291 58.9202 213.558 59.917L213.782 60.7516C214.055 61.7716 214.518 62.6167 215.169 63.2868C215.838 63.9276 216.634 64.3479 217.557 64.5478C218.497 64.7183 219.523 64.6545 220.636 64.3563C221.633 64.0892 222.462 63.7056 223.123 63.2054C223.807 62.6991 224.382 62.0607 224.846 61.2902L228.571 63.6465C227.974 64.85 227.098 65.8922 225.943 66.7733C224.781 67.6311 223.354 68.2868 221.662 68.7402ZM240.523 43.0387C242.007 42.6412 243.409 42.5885 244.73 42.8806C246.067 43.1434 247.237 43.799 248.238 44.8476C249.234 45.8729 249.986 47.336 250.495 49.237L253.365 59.9472L247.941 61.4007L245.294 51.5251C244.891 50.0182 244.256 48.9956 243.392 48.457C242.55 47.9123 241.526 47.8015 240.321 48.1245C239.463 48.3543 238.736 48.7478 238.14 49.3051C237.561 49.833 237.174 50.5206 236.978 51.3681C236.806 52.2093 236.876 53.2094 237.186 54.3686L239.665 63.6183L234.24 65.0718L229.227 46.3637L234.408 44.9754L235.797 50.1567L234.404 48.8527C234.741 47.4208 235.445 46.2009 236.517 45.1932C237.588 44.1855 238.924 43.4673 240.523 43.0387Z" fill="#0EA5E9"/>
<path d="M-37.8246 208.37L-42.9492 189.245C-43.5144 187.135 -43.3389 185.287 -42.4225 183.699C-41.5123 182.089 -39.8981 180.973 -37.5798 180.352C-36.7916 180.141 -36.0165 180.02 -35.2543 179.99C-34.469 179.953 -33.7748 180.04 -33.1716 180.252L-33.5444 184.563C-33.9017 184.435 -34.2813 184.363 -34.6833 184.346C-35.0853 184.33 -35.4949 184.377 -35.9122 184.489C-36.7004 184.7 -37.2526 185.097 -37.5688 185.679C-37.8681 186.231 -37.8966 186.959 -37.6543 187.863L-37.1884 189.602L-36.4251 191.894L-32.3999 206.916L-37.8246 208.37ZM-44.4937 195.025L-45.6118 190.852L-32.6413 187.377L-31.5232 191.55L-44.4937 195.025ZM-24.6802 204.848L-31.5938 179.046L-26.1692 177.593L-19.2556 203.394L-24.6802 204.848ZM-9.9923 208.441C-10.9659 208.702 -11.9684 208.809 -12.9996 208.762C-14.0308 208.715 -14.9192 208.506 -15.6649 208.135L-14.717 203.744C-14.2003 204.003 -13.6475 204.165 -13.0584 204.231C-12.4461 204.29 -11.8734 204.249 -11.3402 204.106C-10.5752 203.901 -10.0221 203.554 -9.68103 203.065C-9.31056 202.593 -9.05168 201.89 -8.90438 200.956L-8.54568 198.4L-8.2868 197.697L-5.89886 179.764L-0.682864 178.367L-3.8125 200.486C-4.01148 202.155 -4.39015 203.523 -4.94851 204.592C-5.4837 205.655 -6.17993 206.488 -7.03723 207.09C-7.87134 207.686 -8.85637 208.136 -9.9923 208.441ZM-8.47961 201.29L-22.0337 184.088L-16.4352 182.587L-5.77447 196.502L-8.47961 201.29ZM6.54348 196.482L1.53068 177.773L6.95532 176.32L11.9681 195.028L6.54348 196.482ZM3.54418 174.439C2.54735 174.706 1.65833 174.633 0.877114 174.222C0.0959028 173.81 -0.409619 173.175 -0.63945 172.317C-0.869281 171.459 -0.748883 170.657 -0.278254 169.91C0.192374 169.162 0.926106 168.655 1.92294 168.388C2.91978 168.121 3.80569 168.182 4.5807 168.57C5.34948 168.936 5.84879 169.548 6.07862 170.405C6.32088 171.309 6.2098 172.147 5.74538 172.917C5.29793 173.658 4.5642 174.165 3.54418 174.439ZM23.2862 171.646C24.7698 171.248 26.172 171.196 27.4926 171.488C28.8302 171.751 29.9997 172.406 31.0012 173.455C31.9965 174.48 32.7488 175.943 33.2582 177.844L36.128 188.554L30.7033 190.008L28.0572 180.132C27.6534 178.625 27.0191 177.603 26.1543 177.064C25.3126 176.52 24.289 176.409 23.0836 176.732C22.2258 176.962 21.4989 177.355 20.9028 177.912C20.3237 178.44 19.9365 179.128 19.7412 179.975C19.569 180.816 19.6383 181.817 19.9488 182.976L22.4273 192.225L17.0026 193.679L11.9898 174.971L17.1711 173.583L18.5594 178.764L17.1664 177.46C17.5033 176.028 18.2076 174.808 19.2793 173.8C20.351 172.793 21.6866 172.075 23.2862 171.646ZM51.8608 191.867C50.0989 192.339 48.336 192.576 46.5721 192.576C44.8375 192.594 43.3105 192.32 41.9911 191.754L43.1035 187.282C44.0656 187.72 45.1991 187.962 46.504 188.01C47.8382 188.075 49.0965 187.949 50.2788 187.632C52.2029 187.117 53.4789 186.315 54.1069 185.228C54.7579 184.134 54.8568 182.741 54.4033 181.049L53.6486 178.232L52.7385 173.444L51.4017 168.734L50.3209 164.7L55.4674 163.321L59.6416 178.9C60.5734 182.377 60.3556 185.181 58.9884 187.311C57.6213 189.442 55.2454 190.96 51.8608 191.867ZM48.9018 184.163C47.1632 184.629 45.4874 184.68 43.8745 184.317C42.2786 183.925 40.8716 183.171 39.6536 182.056C38.4525 180.912 37.6098 179.436 37.1252 177.628C36.6345 175.797 36.6263 174.097 37.1006 172.529C37.5918 170.931 38.4336 169.575 39.6257 168.46C40.8411 167.34 42.3181 166.546 44.0567 166.08C45.6331 165.658 47.111 165.61 48.4904 165.936C49.8636 166.239 51.0665 166.973 52.099 168.137C53.1254 169.278 53.9181 170.892 54.4771 172.979C55.03 175.042 55.1504 176.836 54.8384 178.36C54.5202 179.862 53.8453 181.099 52.8137 182.071C51.7822 183.043 50.4782 183.74 48.9018 184.163ZM48.7872 179.423C49.7376 179.168 50.5341 178.756 51.1765 178.186C51.8128 177.593 52.2463 176.893 52.4773 176.086C52.7082 175.279 52.7025 174.423 52.4603 173.519C52.2118 172.592 51.7889 171.848 51.1915 171.287C50.5878 170.704 49.8654 170.326 49.0242 170.154C48.1768 169.958 47.2778 169.988 46.3273 170.243C45.3769 170.497 44.5835 170.921 43.9473 171.514C43.3048 172.084 42.8566 172.775 42.6024 173.589C42.3653 174.373 42.371 175.229 42.6194 176.156C42.8617 177.06 43.2846 177.804 43.8883 178.387C44.5151 178.965 45.2522 179.351 46.0996 179.547C46.9408 179.719 47.8367 179.677 48.7872 179.423Z" fill="#0EA5E9"/>
<path d="M93.2941 173.237L81.5352 156.336L86.6469 154.967L96.5594 169.567L94.1253 170.219L95.6532 152.553L100.243 151.324L110.225 165.905L107.791 166.557L109.25 148.91L114.048 147.625L112.28 168.149L107.03 169.556L98.3579 157.084L99.9575 156.655L98.5101 171.839L93.2941 173.237ZM132.447 162.746L131.469 159.095L130.907 158.388L129.155 151.851C128.844 150.692 128.243 149.884 127.35 149.427C126.481 148.964 125.316 148.929 123.855 149.32C122.858 149.587 121.917 150.013 121.03 150.599C120.16 151.155 119.461 151.79 118.931 152.503L115.968 149.234C116.796 148.242 117.875 147.357 119.207 146.578C120.539 145.798 121.947 145.21 123.43 144.812C126.282 144.048 128.676 144.128 130.612 145.05C132.549 145.972 133.899 147.859 134.663 150.71L137.524 161.385L132.447 162.746ZM126.819 164.552C125.358 164.943 124.041 165.035 122.867 164.828C121.688 164.598 120.705 164.128 119.918 163.419C119.132 162.711 118.596 161.823 118.31 160.757C118.012 159.644 118.018 158.599 118.328 157.622C118.66 156.638 119.356 155.756 120.414 154.975C121.466 154.172 122.942 153.515 124.843 153.006L129.816 151.674L130.663 154.838L126.282 156.012C125.007 156.354 124.182 156.798 123.807 157.346C123.455 157.888 123.363 158.471 123.531 159.097C123.717 159.793 124.133 160.278 124.778 160.552C125.44 160.797 126.246 160.792 127.196 160.538C128.101 160.295 128.856 159.869 129.463 159.259C130.064 158.626 130.414 157.849 130.515 156.928L132.021 159.208C131.95 160.519 131.476 161.627 130.601 162.532C129.725 163.438 128.465 164.111 126.819 164.552ZM150.158 158.298C147.956 158.888 146.091 158.792 144.564 158.008C143.031 157.201 141.967 155.685 141.37 153.46L136.972 137.047L142.397 135.593L146.776 151.937C146.988 152.725 147.361 153.283 147.896 153.612C148.425 153.918 149.049 153.974 149.768 153.781C150.625 153.552 151.294 153.124 151.772 152.499L154.257 155.933C153.807 156.476 153.215 156.957 152.483 157.377C151.768 157.768 150.993 158.075 150.158 158.298ZM136.425 146.548L135.307 142.376L148.277 138.9L149.395 143.073L136.425 146.548ZM166.327 153.966C164.194 154.537 162.204 154.623 160.358 154.224C158.535 153.818 156.99 153.014 155.724 151.813C154.452 150.588 153.567 149.049 153.07 147.194C152.567 145.316 152.552 143.544 153.024 141.877C153.514 140.18 154.404 138.725 155.693 137.509C156.976 136.271 158.568 135.397 160.469 134.888C162.301 134.397 164.052 134.35 165.724 134.747C167.412 135.115 168.881 135.914 170.13 137.144C171.373 138.352 172.265 139.964 172.805 141.981C172.861 142.189 172.915 142.436 172.966 142.72C173.011 142.982 173.053 143.231 173.092 143.469L157.896 147.541L157.049 144.377L169.393 141.069L167.558 142.567C167.297 141.593 166.874 140.8 166.287 140.187C165.7 139.574 165.006 139.163 164.205 138.956C163.398 138.725 162.531 138.733 161.603 138.982C160.676 139.23 159.909 139.659 159.302 140.269C158.712 140.85 158.32 141.564 158.124 142.411C157.923 143.235 157.956 144.146 158.223 145.143L158.446 145.977C158.72 146.997 159.182 147.842 159.834 148.513C160.503 149.153 161.298 149.574 162.222 149.774C163.162 149.944 164.188 149.88 165.301 149.582C166.298 149.315 167.127 148.931 167.788 148.431C168.472 147.925 169.046 147.286 169.511 146.516L173.236 148.872C172.639 150.076 171.763 151.118 170.607 151.999C169.446 152.857 168.019 153.513 166.327 153.966ZM178.905 150.298L173.892 131.589L179.073 130.201L180.489 135.487L179.349 134.152C179.551 132.682 180.177 131.446 181.225 130.444C182.268 129.42 183.67 128.671 185.432 128.199L186.773 133.207C186.535 133.246 186.324 133.29 186.138 133.34C185.946 133.366 185.746 133.407 185.538 133.463C184.054 133.861 182.963 134.613 182.266 135.719C181.585 136.796 181.484 138.227 181.963 140.012L184.329 148.844L178.905 150.298Z" fill="#0EA5E9"/>
<path d="M223.854 138.552C222.254 138.98 220.663 139.208 219.08 139.234C217.514 139.232 216.224 139.055 215.211 138.706L215.976 134.327C216.976 134.63 218.103 134.8 219.355 134.837C220.624 134.845 221.827 134.697 222.963 134.392C224.215 134.057 225.055 133.67 225.485 133.232C225.937 132.788 226.092 132.299 225.949 131.766C225.831 131.326 225.535 131.057 225.062 130.96C224.606 130.834 224.026 130.803 223.323 130.867C222.619 130.931 221.847 131.014 221.004 131.116C220.185 131.211 219.345 131.275 218.484 131.307C217.616 131.315 216.794 131.213 216.016 130.999C215.238 130.785 214.55 130.398 213.953 129.837C213.379 129.27 212.949 128.454 212.663 127.387C212.346 126.205 212.403 125.072 212.833 123.988C213.286 122.897 214.093 121.923 215.255 121.065C216.41 120.184 217.892 119.501 219.7 119.017C220.975 118.675 222.311 118.466 223.707 118.391C225.103 118.315 226.312 118.425 227.336 118.723L226.562 123.067C225.515 122.776 224.503 122.662 223.526 122.725C222.566 122.759 221.657 122.89 220.8 123.12C219.594 123.443 218.757 123.841 218.287 124.315C217.818 124.789 217.652 125.281 217.788 125.791C217.912 126.254 218.203 126.549 218.659 126.675C219.138 126.795 219.733 126.835 220.442 126.794C221.152 126.753 221.916 126.685 222.736 126.589C223.572 126.465 224.424 126.398 225.291 126.389C226.158 126.38 226.969 126.486 227.724 126.706C228.495 126.897 229.18 127.273 229.777 127.833C230.369 128.37 230.807 129.172 231.093 130.239C231.403 131.398 231.332 132.523 230.879 133.613C230.419 134.68 229.597 135.646 228.413 136.51C227.251 137.368 225.731 138.048 223.854 138.552ZM243.683 133.238C241.481 133.828 239.616 133.732 238.09 132.948C236.556 132.141 235.492 130.625 234.895 128.4L230.498 111.987L235.922 110.533L240.301 126.877C240.513 127.665 240.886 128.223 241.421 128.552C241.95 128.857 242.574 128.914 243.293 128.721C244.151 128.492 244.819 128.064 245.297 127.439L247.783 130.873C247.332 131.416 246.74 131.897 246.008 132.317C245.293 132.708 244.518 133.015 243.683 133.238ZM229.95 121.488L228.832 117.315L241.802 113.84L242.921 118.013L229.95 121.488ZM259.038 129.124C257.485 129.54 256.013 129.611 254.623 129.338C253.256 129.058 252.072 128.394 251.07 127.346C250.063 126.274 249.301 124.776 248.785 122.852L245.953 112.281L251.377 110.827L253.996 120.598C254.412 122.152 255.044 123.212 255.892 123.78C256.757 124.319 257.792 124.426 258.997 124.103C259.832 123.88 260.527 123.507 261.083 122.985C261.633 122.441 261.994 121.748 262.166 120.906C262.332 120.042 262.263 119.042 261.958 117.906L259.48 108.656L264.904 107.203L269.917 125.911L264.771 127.29L263.392 122.143L264.731 123.387C264.453 124.853 263.79 126.087 262.741 127.088C261.71 128.06 260.475 128.739 259.038 129.124ZM283.05 122.69C281.288 123.162 279.594 123.193 277.969 122.784C276.338 122.352 274.912 121.529 273.692 120.315C272.496 119.095 271.637 117.511 271.115 115.564C270.587 113.594 270.536 111.781 270.962 110.126C271.412 108.465 272.238 107.051 273.441 105.884C274.644 104.717 276.126 103.898 277.888 103.426C279.464 103.003 280.937 102.981 282.306 103.36C283.674 103.739 284.873 104.548 285.901 105.788C286.929 107.028 287.738 108.75 288.328 110.952C288.912 113.131 289.083 115.023 288.842 116.628C288.595 118.21 287.974 119.507 286.978 120.519C286.005 121.525 284.696 122.249 283.05 122.69ZM282.796 117.987C283.677 117.751 284.421 117.328 285.028 116.719C285.635 116.109 286.044 115.365 286.256 114.489C286.486 113.582 286.457 112.596 286.172 111.53C285.88 110.44 285.411 109.572 284.766 108.925C284.143 108.272 283.417 107.833 282.587 107.608C281.756 107.383 280.9 107.389 280.02 107.625C279.115 107.867 278.36 108.293 277.753 108.903C277.146 109.513 276.725 110.259 276.49 111.142C276.277 112.019 276.317 113.002 276.609 114.092C276.895 115.158 277.352 116.03 277.98 116.706C278.626 117.353 279.364 117.789 280.194 118.014C281.025 118.238 281.892 118.23 282.796 117.987ZM288.817 120.846L287.792 117.021L286.406 111.43L284.577 105.994L281.66 95.1098L287.085 93.6563L293.998 119.458L288.817 120.846ZM303.266 124.503C302.292 124.764 301.29 124.871 300.259 124.825C299.227 124.778 298.339 124.569 297.593 124.197L298.541 119.806C299.058 120.065 299.611 120.228 300.2 120.294C300.812 120.353 301.385 120.311 301.918 120.169C302.683 119.964 303.236 119.617 303.577 119.128C303.948 118.656 304.206 117.953 304.354 117.019L304.712 114.463L304.971 113.76L307.359 95.8269L312.575 94.4292L309.446 116.549C309.247 118.217 308.868 119.586 308.31 120.655C307.774 121.718 307.078 122.55 306.221 123.153C305.387 123.749 304.402 124.199 303.266 124.503ZM304.779 117.352L291.224 100.15L296.823 98.6501L307.484 112.565L304.779 117.352ZM319.802 112.544L314.789 93.8361L320.213 92.3826L325.226 111.091L319.802 112.544ZM316.802 90.5014C315.806 90.7685 314.916 90.6961 314.135 90.2843C313.354 89.8724 312.849 89.2376 312.619 88.3799C312.389 87.5221 312.509 86.7196 312.98 85.9724C313.451 85.2251 314.184 84.7179 315.181 84.4508C316.178 84.1837 317.064 84.2445 317.839 84.6331C318.608 84.9986 319.107 85.6102 319.337 86.468C319.579 87.3721 319.468 88.2094 319.004 88.9798C318.556 89.7209 317.822 90.228 316.802 90.5014ZM336.544 87.7086C338.028 87.3111 339.43 87.2584 340.751 87.5505C342.088 87.8133 343.258 88.4689 344.259 89.5174C345.255 90.5428 346.007 92.0059 346.516 93.9068L349.386 104.617L343.962 106.071L341.315 96.1949C340.912 94.6881 340.277 93.6654 339.412 93.1269C338.571 92.5822 337.547 92.4713 336.342 92.7943C335.484 93.0242 334.757 93.4177 334.161 93.975C333.582 94.5028 333.195 95.1905 332.999 96.0379C332.827 96.8791 332.896 97.8793 333.207 99.0384L335.685 108.288L330.261 109.742L325.248 91.0336L330.429 89.6453L331.818 94.8265L330.425 93.5226C330.761 92.0906 331.466 90.8708 332.537 89.8631C333.609 88.8554 334.945 88.1372 336.544 87.7086ZM365.119 107.93C363.357 108.402 361.594 108.638 359.83 108.639C358.096 108.656 356.569 108.382 355.249 107.817L356.362 103.344C357.324 103.782 358.457 104.025 359.762 104.073C361.096 104.138 362.355 104.012 363.537 103.695C365.461 103.18 366.737 102.378 367.365 101.29C368.016 100.197 368.115 98.8036 367.661 97.1113L366.907 94.2946L365.997 89.5071L364.66 84.7965L363.579 80.7628L368.726 79.3838L372.9 94.9623C373.832 98.4396 373.614 101.244 372.247 103.374C370.879 105.504 368.504 107.023 365.119 107.93ZM362.16 100.225C360.421 100.691 358.746 100.743 357.133 100.38C355.537 99.9874 354.13 99.2339 352.912 98.1191C351.711 96.975 350.868 95.4988 350.383 93.6906C349.893 91.8592 349.884 90.1594 350.359 88.5912C350.85 86.9937 351.692 85.6376 352.884 84.5231C354.099 83.4023 355.576 82.609 357.315 82.1431C358.891 81.7208 360.369 81.6726 361.749 81.9987C363.122 82.3016 364.325 83.0353 365.357 84.1997C366.384 85.341 367.176 86.9548 367.735 89.0412C368.288 91.1044 368.409 92.8984 368.097 94.4231C367.778 95.9246 367.103 97.1614 366.072 98.1335C365.04 99.1056 363.736 99.8029 362.16 100.225ZM362.045 95.4854C362.996 95.2308 363.792 94.8186 364.435 94.2489C365.071 93.656 365.505 92.956 365.735 92.1487C365.966 91.3414 365.961 90.4857 365.718 89.5816C365.47 88.6543 365.047 87.9104 364.45 87.35C363.846 86.7663 363.124 86.3884 362.282 86.2163C361.435 86.0209 360.536 86.0506 359.585 86.3053C358.635 86.56 357.842 86.9837 357.205 87.5766C356.563 88.1463 356.115 88.8379 355.861 89.6514C355.623 90.4355 355.629 91.2912 355.878 92.2185C356.12 93.1226 356.543 93.8664 357.146 94.4501C357.773 95.0275 358.51 95.4139 359.358 95.6093C360.199 95.7814 361.095 95.7401 362.045 95.4854Z" fill="#0EA5E9"/>
<path d="M-28.1814 284.248C-30.1983 284.788 -32.1036 284.864 -33.8974 284.475C-35.6974 284.063 -37.2451 283.247 -38.5406 282.029C-39.8128 280.805 -40.6974 279.265 -41.1944 277.411C-41.6975 275.533 -41.7012 273.757 -41.2054 272.084C-40.6926 270.381 -39.7567 268.913 -38.3977 267.679C-37.045 266.422 -35.3602 265.524 -33.3433 264.983C-31.3728 264.455 -29.5455 264.413 -27.8614 264.856C-26.1835 265.276 -24.7919 266.158 -23.6864 267.502L-27.2884 270.889C-28.0112 270.139 -28.7995 269.654 -29.6531 269.436C-30.4836 269.211 -31.3277 269.214 -32.1854 269.443C-33.1127 269.692 -33.8914 270.124 -34.5214 270.74C-35.1514 271.356 -35.5842 272.106 -35.8197 272.989C-36.032 273.866 -35.9921 274.849 -35.7002 275.938C-35.4082 277.028 -34.9511 277.899 -34.3289 278.553C-33.6834 279.2 -32.9339 279.632 -32.0802 279.851C-31.2266 280.069 -30.3361 280.054 -29.4088 279.806C-28.5511 279.576 -27.8157 279.168 -27.2026 278.581C-26.5726 277.965 -26.1353 277.14 -25.8908 276.105L-21.0682 277.273C-21.3599 278.966 -22.1242 280.426 -23.3611 281.652C-24.6042 282.854 -26.2109 283.72 -28.1814 284.248ZM-8.01344 278.844C-10.0071 279.378 -11.8924 279.436 -13.6692 279.017C-15.4228 278.593 -16.9443 277.783 -18.2335 276.588C-19.5058 275.363 -20.3904 273.824 -20.8873 271.969C-21.3904 270.092 -21.3941 268.316 -20.8983 266.643C-20.3855 264.94 -19.4728 263.478 -18.1602 262.257C-16.8306 261.006 -15.169 260.113 -13.1753 259.579C-11.2048 259.051 -9.33118 258.996 -7.55435 259.415C-5.78373 259.81 -4.2654 260.608 -2.99935 261.809C-1.7333 263.011 -0.845602 264.562 -0.336246 266.463C0.160686 268.317 0.164358 270.093 -0.325232 271.789C-0.821033 273.463 -1.73373 274.925 -3.06332 276.175C-4.39291 277.426 -6.04295 278.316 -8.01344 278.844ZM-9.20607 274.393C-8.30197 274.15 -7.54649 273.724 -6.93965 273.114C-6.33282 272.505 -5.92325 271.761 -5.71095 270.884C-5.50487 269.984 -5.5447 269.001 -5.83043 267.935C-6.12238 266.845 -6.57949 265.974 -7.20175 265.321C-7.82402 264.667 -8.55038 264.229 -9.38084 264.004C-10.2113 263.779 -11.0786 263.788 -11.9827 264.03C-12.8868 264.272 -13.6423 264.698 -14.2491 265.308C-14.8559 265.918 -15.2771 266.665 -15.5126 267.548C-15.7249 268.424 -15.685 269.408 -15.3931 270.497C-15.1074 271.564 -14.6503 272.435 -14.0218 273.111C-13.3763 273.758 -12.6384 274.194 -11.8079 274.419C-10.9775 274.644 -10.1102 274.635 -9.20607 274.393ZM14.7726 272.738C12.7789 273.272 10.8937 273.33 9.11685 272.912C7.36321 272.487 5.84177 271.677 4.55254 270.482C3.28028 269.258 2.39569 267.718 1.89875 265.864C1.39561 263.986 1.39194 262.211 1.88774 260.537C2.40051 258.834 3.31321 257.372 4.62583 256.151C5.95542 254.9 7.61705 254.008 9.61072 253.474C11.5812 252.946 13.4549 252.891 15.2317 253.309C17.0023 253.704 18.5206 254.503 19.7867 255.704C21.0527 256.905 21.9404 258.456 22.4498 260.357C22.9467 262.212 22.9504 263.987 22.4608 265.684C21.965 267.357 21.0523 268.819 19.7227 270.07C18.3931 271.321 16.7431 272.21 14.7726 272.738ZM13.58 268.287C14.4841 268.045 15.2395 267.619 15.8464 267.009C16.4532 266.399 16.8628 265.656 17.0751 264.779C17.2812 263.879 17.2413 262.896 16.9556 261.829C16.6637 260.74 16.2066 259.868 15.5843 259.215C14.962 258.562 14.2357 258.123 13.4052 257.898C12.5747 257.674 11.7075 257.682 10.8034 257.925C9.89925 258.167 9.14378 258.593 8.53694 259.203C7.9301 259.813 7.50894 260.559 7.27346 261.442C7.06117 262.319 7.10099 263.302 7.39294 264.392C7.67868 265.458 8.13578 266.329 8.76426 267.006C9.40971 267.653 10.1477 268.089 10.9781 268.313C11.8086 268.538 12.6759 268.529 13.58 268.287ZM32.043 263.713L30.4117 257.068L36.9223 246.454L43.3901 244.721L37.2925 255.486L35.0908 258.535L32.043 263.713ZM28.5821 268.74L21.6686 242.938L27.0932 241.484L34.0068 267.286L28.5821 268.74ZM42.5262 265.003L34.0917 258.84L36.3721 253.72L49.0984 263.242L42.5262 265.003Z" fill="#0EA5E9"/>
<path d="M90.9893 266.715C88.6401 267.344 86.2896 267.659 83.9377 267.66C81.6249 267.683 79.5889 267.318 77.8297 266.563L79.3129 260.6C80.5957 261.184 82.1071 261.508 83.8469 261.572C85.6259 261.658 87.3036 261.491 88.88 261.068C91.4455 260.381 93.1468 259.312 93.9841 257.862C94.8522 256.403 94.9839 254.546 94.3793 252.29L93.3731 248.534L92.1596 242.151L90.3773 235.87L88.9361 230.492L95.7981 228.653L101.364 249.424C102.606 254.061 102.316 257.799 100.493 260.64C98.6699 263.48 95.5021 265.505 90.9893 266.715ZM87.044 256.442C84.7258 257.063 82.4914 257.131 80.3409 256.648C78.213 256.124 76.3371 255.12 74.713 253.633C73.1116 252.108 71.9879 250.14 71.3419 247.729C70.6876 245.287 70.6767 243.021 71.309 240.93C71.964 238.799 73.0863 236.991 74.6759 235.505C76.2963 234.011 78.2657 232.953 80.5839 232.332C82.6857 231.769 84.6563 231.705 86.4955 232.14C88.3264 232.543 89.9302 233.522 91.307 235.074C92.6754 236.596 93.7324 238.748 94.4778 241.53C95.2149 244.28 95.3754 246.672 94.9594 248.705C94.5351 250.707 93.6353 252.357 92.2599 253.653C90.8845 254.949 89.1459 255.878 87.044 256.442ZM86.8911 250.122C88.1584 249.782 89.2204 249.233 90.077 248.473C90.9253 247.683 91.5034 246.749 91.8113 245.673C92.1192 244.596 92.1116 243.456 91.7886 242.25C91.4573 241.014 90.8934 240.022 90.0969 239.275C89.292 238.496 88.3288 237.992 87.2072 237.763C86.0773 237.503 84.8787 237.542 83.6114 237.882C82.3441 238.221 81.2863 238.786 80.438 239.577C79.5814 240.336 78.9837 241.258 78.6448 242.343C78.3287 243.389 78.3362 244.53 78.6675 245.766C78.9905 246.971 79.5544 247.963 80.3593 248.741C81.195 249.511 82.1778 250.027 83.3077 250.287C84.4294 250.516 85.6238 250.461 86.8911 250.122ZM109.214 251.793L102.53 226.849L109.438 224.998L111.327 232.046L109.806 230.266C110.076 228.306 110.91 226.658 112.308 225.322C113.698 223.956 115.567 222.958 117.916 222.329L119.705 229.005C119.388 229.057 119.106 229.116 118.858 229.183C118.603 229.218 118.336 229.273 118.058 229.348C116.079 229.878 114.625 230.88 113.695 232.355C112.788 233.791 112.653 235.699 113.291 238.079L116.447 249.855L109.214 251.793ZM142.67 242.829L141.366 237.96L140.617 237.018L138.281 228.302C137.867 226.756 137.065 225.679 135.875 225.07C134.715 224.453 133.162 224.406 131.215 224.928C129.886 225.284 128.63 225.852 127.448 226.633C126.288 227.374 125.355 228.22 124.65 229.171L120.699 224.813C121.802 223.491 123.242 222.31 125.017 221.271C126.793 220.232 128.67 219.448 130.648 218.917C134.45 217.899 137.642 218.004 140.224 219.234C142.806 220.463 144.607 222.979 145.626 226.781L149.44 241.015L142.67 242.829ZM135.166 245.237C133.219 245.759 131.463 245.881 129.898 245.605C128.325 245.298 127.014 244.672 125.966 243.727C124.917 242.782 124.203 241.599 123.822 240.177C123.424 238.693 123.432 237.3 123.845 235.996C124.288 234.685 125.215 233.509 126.626 232.468C128.029 231.397 129.997 230.521 132.532 229.842L139.162 228.066L140.292 232.285L134.45 233.85C132.75 234.306 131.65 234.899 131.15 235.629C130.681 236.351 130.559 237.129 130.782 237.964C131.031 238.891 131.585 239.538 132.445 239.904C133.328 240.23 134.402 240.224 135.67 239.884C136.875 239.561 137.883 238.993 138.692 238.18C139.492 237.336 139.96 236.3 140.095 235.071L142.102 238.111C142.007 239.859 141.376 241.337 140.209 242.544C139.042 243.751 137.361 244.649 135.166 245.237ZM181.148 205.386C183.126 204.856 184.98 204.79 186.71 205.188C188.462 205.546 189.991 206.429 191.295 207.835C192.622 209.202 193.625 211.153 194.305 213.688L198.131 227.968L190.898 229.906L187.37 216.739C186.832 214.729 186.017 213.358 184.925 212.623C183.834 211.888 182.531 211.724 181.017 212.13C179.966 212.411 179.089 212.911 178.387 213.63C177.677 214.317 177.218 215.202 177.011 216.284C176.804 217.367 176.9 218.65 177.297 220.133L180.652 232.652L173.419 234.59L169.89 221.422C169.352 219.413 168.537 218.041 167.446 217.307C166.386 216.564 165.098 216.395 163.584 216.801C162.533 217.083 161.656 217.583 160.954 218.301C160.244 218.988 159.785 219.873 159.578 220.955C159.371 222.038 159.467 223.321 159.864 224.804L163.219 237.323L155.986 239.261L149.302 214.317L156.21 212.466L158.036 219.281L156.204 217.635C156.614 215.704 157.491 214.094 158.836 212.806C160.203 211.479 161.906 210.542 163.946 209.995C166.234 209.382 168.385 209.435 170.4 210.154C172.437 210.834 174.053 212.29 175.247 214.521L172.51 214.509C172.823 212.338 173.738 210.436 175.255 208.804C176.804 207.163 178.768 206.024 181.148 205.386ZM229.776 192.356C231.754 191.826 233.608 191.76 235.338 192.158C237.091 192.517 238.619 193.399 239.924 194.805C241.251 196.172 242.254 198.123 242.933 200.658L246.759 214.938L239.526 216.876L235.998 203.709C235.46 201.7 234.645 200.328 233.554 199.593C232.462 198.859 231.159 198.694 229.645 199.1C228.594 199.382 227.717 199.881 227.015 200.6C226.305 201.287 225.846 202.172 225.64 203.254C225.433 204.337 225.528 205.62 225.926 207.103L229.28 219.622L222.047 221.56L218.519 208.392C217.98 206.383 217.166 205.011 216.074 204.277C215.014 203.534 213.726 203.365 212.212 203.771C211.161 204.053 210.284 204.553 209.582 205.271C208.872 205.958 208.413 206.843 208.207 207.925C208 209.008 208.095 210.291 208.493 211.774L211.847 224.293L204.614 226.231L197.93 201.287L204.839 199.436L206.665 206.251L204.832 204.606C205.242 202.674 206.12 201.064 207.464 199.776C208.831 198.449 210.535 197.512 212.575 196.965C214.862 196.352 217.013 196.405 219.028 197.125C221.065 197.804 222.681 199.26 223.875 201.491L221.139 201.479C221.451 199.308 222.366 197.406 223.884 195.774C225.432 194.133 227.396 192.994 229.776 192.356ZM268.543 209.101L267.238 204.233L266.489 203.291L264.153 194.574C263.739 193.029 262.937 191.952 261.747 191.343C260.588 190.726 259.034 190.678 257.087 191.2C255.758 191.556 254.502 192.125 253.32 192.905C252.16 193.647 251.228 194.493 250.522 195.444L246.571 191.086C247.675 189.763 249.114 188.583 250.89 187.544C252.665 186.505 254.542 185.72 256.52 185.19C260.322 184.171 263.514 184.277 266.096 185.506C268.679 186.736 270.479 189.252 271.498 193.054L275.312 207.287L268.543 209.101ZM261.038 211.51C259.091 212.031 257.335 212.154 255.77 211.878C254.197 211.57 252.886 210.944 251.838 209.999C250.79 209.055 250.075 207.871 249.694 206.449C249.296 204.966 249.304 203.572 249.717 202.269C250.16 200.957 251.088 199.781 252.498 198.741C253.901 197.669 255.869 196.794 258.404 196.115L265.034 194.338L266.165 198.557L260.323 200.123C258.623 200.578 257.523 201.171 257.023 201.902C256.554 202.624 256.431 203.402 256.654 204.236C256.903 205.164 257.457 205.81 258.317 206.176C259.2 206.503 260.275 206.496 261.542 206.157C262.747 205.834 263.755 205.266 264.564 204.453C265.365 203.609 265.832 202.572 265.967 201.344L267.974 204.384C267.879 206.132 267.248 207.609 266.081 208.817C264.914 210.024 263.233 210.922 261.038 211.51ZM281.858 205.533L275.174 180.589L282.082 178.738L283.971 185.786L282.45 184.007C282.72 182.046 283.554 180.398 284.952 179.063C286.342 177.696 288.211 176.699 290.56 176.069L292.349 182.746C292.032 182.797 291.75 182.857 291.502 182.923C291.247 182.958 290.98 183.013 290.702 183.088C288.724 183.618 287.27 184.62 286.34 186.095C285.432 187.531 285.297 189.439 285.935 191.819L289.091 203.595L281.858 205.533Z" fill="#F0F9FF"/>
<path d="M335.092 186.909C333.446 187.35 331.939 187.381 330.57 187.002C329.201 186.624 328.015 185.811 327.01 184.565C325.999 183.295 325.201 181.571 324.617 179.392C324.027 177.189 323.867 175.294 324.137 173.706C324.431 172.112 325.075 170.809 326.071 169.796C327.067 168.784 328.354 168.067 329.93 167.644C331.692 167.172 333.374 167.144 334.976 167.559C336.601 167.969 338.012 168.783 339.209 170.003C340.428 171.217 341.302 172.809 341.83 174.78C342.352 176.727 342.388 178.531 341.939 180.192C341.512 181.847 340.701 183.269 339.504 184.459C338.324 185.62 336.854 186.437 335.092 186.909ZM323.959 189.594L317.046 163.792L322.47 162.338L325.387 173.222L326.521 178.844L328.116 184.38L329.141 188.205L323.959 189.594ZM332.96 182.709C333.864 182.467 334.608 182.044 335.192 181.441C335.799 180.831 336.208 180.087 336.421 179.211C336.65 178.304 336.622 177.318 336.336 176.252C336.044 175.162 335.575 174.294 334.93 173.647C334.308 172.994 333.581 172.555 332.751 172.33C331.943 172.099 331.088 172.105 330.184 172.347C329.28 172.589 328.524 173.015 327.917 173.625C327.31 174.235 326.901 174.978 326.689 175.855C326.476 176.732 326.516 177.715 326.808 178.805C327.094 179.871 327.551 180.742 328.179 181.419C328.802 182.072 329.528 182.511 330.358 182.736C331.189 182.96 332.056 182.952 332.96 182.709ZM356.944 181.053C354.951 181.588 353.065 181.646 351.289 181.227C349.535 180.803 348.014 179.993 346.724 178.798C345.452 177.573 344.567 176.034 344.071 174.179C343.567 172.301 343.564 170.526 344.06 168.853C344.572 167.15 345.485 165.688 346.798 164.466C348.127 163.216 349.789 162.323 351.782 161.789C353.753 161.261 355.627 161.206 357.403 161.625C359.174 162.02 360.692 162.818 361.958 164.019C363.225 165.221 364.112 166.772 364.622 168.673C365.118 170.527 365.122 172.303 364.633 173.999C364.137 175.673 363.224 177.135 361.894 178.385C360.565 179.636 358.915 180.525 356.944 181.053ZM355.752 176.602C356.656 176.36 357.411 175.934 358.018 175.324C358.625 174.714 359.035 173.971 359.247 173.094C359.453 172.194 359.413 171.211 359.127 170.145C358.835 169.055 358.378 168.184 357.756 167.531C357.134 166.877 356.407 166.438 355.577 166.214C354.747 165.989 353.879 165.998 352.975 166.24C352.071 166.482 351.316 166.908 350.709 167.518C350.102 168.128 349.681 168.874 349.445 169.757C349.233 170.634 349.273 171.617 349.565 172.707C349.85 173.773 350.308 174.645 350.936 175.321C351.581 175.968 352.319 176.404 353.15 176.629C353.98 176.853 354.848 176.845 355.752 176.602ZM379.73 174.948C377.737 175.482 375.851 175.54 374.075 175.122C372.321 174.697 370.8 173.887 369.51 172.692C368.238 171.468 367.353 169.928 366.857 168.074C366.353 166.196 366.35 164.42 366.846 162.747C367.358 161.044 368.271 159.582 369.584 158.361C370.913 157.11 372.575 156.218 374.569 155.683C376.539 155.156 378.413 155.101 380.189 155.519C381.96 155.914 383.478 156.712 384.744 157.914C386.011 159.115 386.898 160.666 387.408 162.567C387.905 164.422 387.908 166.197 387.419 167.894C386.923 169.567 386.01 171.029 384.681 172.28C383.351 173.531 381.701 174.42 379.73 174.948ZM378.538 170.497C379.442 170.255 380.197 169.829 380.804 169.219C381.411 168.609 381.821 167.866 382.033 166.989C382.239 166.089 382.199 165.106 381.913 164.039C381.621 162.95 381.164 162.078 380.542 161.425C379.92 160.772 379.193 160.333 378.363 160.108C377.533 159.883 376.665 159.892 375.761 160.134C374.857 160.377 374.102 160.803 373.495 161.413C372.888 162.022 372.467 162.769 372.231 163.652C372.019 164.529 372.059 165.512 372.351 166.602C372.636 167.668 373.094 168.539 373.722 169.216C374.368 169.863 375.105 170.299 375.936 170.523C376.766 170.748 377.634 170.739 378.538 170.497ZM397.001 165.922L395.37 159.278L401.88 148.664L408.348 146.93L402.25 157.695L400.049 160.745L397.001 165.922ZM393.54 170.95L386.626 145.148L392.051 143.694L398.965 169.496L393.54 170.95ZM407.484 167.213L399.05 161.05L401.33 155.93L414.056 165.452L407.484 167.213Z" fill="#0EA5E9"/>
<path d="M42.0705 343.587C40.0537 344.127 38.1484 344.203 36.3546 343.814C34.5545 343.402 33.0068 342.587 31.7114 341.368C30.4391 340.144 29.5545 338.605 29.0576 336.75C28.5544 334.872 28.5508 333.097 29.0466 331.423C29.5593 329.721 30.4952 328.252 31.8542 327.019C33.207 325.762 34.8918 324.863 36.9086 324.322C38.8791 323.794 40.7064 323.752 42.3905 324.195C44.0684 324.615 45.4601 325.497 46.5655 326.841L42.9636 330.229C42.2407 329.478 41.4525 328.994 40.5988 328.775C39.7684 328.55 38.9243 328.553 38.0665 328.783C37.1392 329.031 36.3606 329.464 35.7305 330.08C35.1005 330.696 34.6678 331.445 34.4323 332.328C34.22 333.205 34.2598 334.188 34.5518 335.278C34.8437 336.367 35.3008 337.239 35.9231 337.892C36.5685 338.539 37.3181 338.972 38.1717 339.19C39.0254 339.409 39.9158 339.394 40.8431 339.145C41.7009 338.915 42.4363 338.507 43.0493 337.921C43.6793 337.304 44.1166 336.479 44.3612 335.445L49.1837 336.612C48.892 338.305 48.1277 339.765 46.8909 340.991C45.6478 342.194 44.041 343.059 42.0705 343.587ZM64.9749 337.152L63.9966 333.5L63.4345 332.794L61.6829 326.256C61.3723 325.097 60.7707 324.289 59.8781 323.833C59.0087 323.37 57.8438 323.334 56.3833 323.726C55.3865 323.993 54.4447 324.419 53.558 325.005C52.6883 325.561 51.9887 326.195 51.4593 326.909L48.4964 323.64C49.3239 322.648 50.4034 321.763 51.7351 320.983C53.0668 320.204 54.4745 319.616 55.9582 319.218C58.8096 318.454 61.2036 318.533 63.1403 319.455C65.077 320.378 66.4273 322.264 67.1914 325.116L70.0518 335.791L64.9749 337.152ZM59.3466 338.958C57.8861 339.349 56.5691 339.441 55.3954 339.234C54.2156 339.003 53.2326 338.534 52.4463 337.825C51.6601 337.116 51.1242 336.229 50.8384 335.163C50.5403 334.05 50.546 333.005 50.8556 332.027C51.1883 331.044 51.8837 330.162 52.9418 329.381C53.9936 328.578 55.47 327.921 57.371 327.412L62.3435 326.079L63.1914 329.244L58.81 330.418C57.535 330.759 56.71 331.204 56.3349 331.752C55.9831 332.293 55.891 332.877 56.0588 333.503C56.2451 334.198 56.6608 334.683 57.3058 334.958C57.9678 335.203 58.774 335.198 59.7245 334.943C60.6286 334.701 61.384 334.275 61.9909 333.665C62.5915 333.032 62.9423 332.255 63.0432 331.333L64.5486 333.613C64.4775 334.924 64.0042 336.033 63.1288 336.938C62.2533 337.844 60.9926 338.517 59.3466 338.958ZM82.6861 332.704C80.4837 333.294 78.6192 333.197 77.0924 332.414C75.5593 331.607 74.4947 330.091 73.8983 327.866L69.5005 311.453L74.9251 309.999L79.3043 326.343C79.5155 327.131 79.8888 327.689 80.4241 328.018C80.9532 328.323 81.577 328.38 82.2957 328.187C83.1534 327.957 83.8216 327.53 84.3001 326.905L86.7855 330.338C86.3347 330.882 85.7432 331.363 85.0109 331.783C84.2956 332.173 83.5206 332.48 82.6861 332.704ZM68.953 320.954L67.8349 316.781L80.8053 313.306L81.9234 317.479L68.953 320.954Z" fill="#0EA5E9"/>
<path d="M125.225 321.306C123.579 321.747 122.072 321.778 120.703 321.399C119.335 321.021 118.148 320.208 117.143 318.962C116.132 317.692 115.334 315.968 114.751 313.789C114.16 311.586 114.001 309.691 114.271 308.103C114.564 306.509 115.209 305.206 116.205 304.193C117.201 303.181 118.487 302.464 120.063 302.041C121.825 301.569 123.507 301.541 125.109 301.956C126.734 302.366 128.145 303.18 129.342 304.4C130.562 305.614 131.435 307.206 131.963 309.176C132.485 311.124 132.521 312.928 132.072 314.589C131.646 316.244 130.834 317.666 129.637 318.856C128.458 320.017 126.987 320.834 125.225 321.306ZM114.093 323.991L107.179 298.189L112.604 296.735L115.52 307.619L116.654 313.241L118.249 318.777L119.274 322.602L114.093 323.991ZM123.094 317.106C123.998 316.864 124.742 316.441 125.325 315.838C125.932 315.228 126.342 314.484 126.554 313.608C126.783 312.701 126.755 311.715 126.469 310.649C126.177 309.559 125.709 308.691 125.063 308.044C124.441 307.391 123.714 306.952 122.884 306.727C122.077 306.496 121.221 306.502 120.317 306.744C119.413 306.986 118.657 307.412 118.051 308.022C117.444 308.632 117.034 309.375 116.822 310.252C116.61 311.129 116.649 312.112 116.941 313.202C117.227 314.268 117.684 315.139 118.313 315.816C118.935 316.469 119.661 316.908 120.492 317.133C121.322 317.357 122.189 317.349 123.094 317.106ZM147.078 315.45C145.084 315.985 143.199 316.043 141.422 315.624C139.668 315.2 138.147 314.39 136.858 313.195C135.585 311.97 134.701 310.431 134.204 308.576C133.701 306.698 133.697 304.923 134.193 303.25C134.706 301.547 135.618 300.085 136.931 298.863C138.26 297.613 139.922 296.72 141.916 296.186C143.886 295.658 145.76 295.603 147.537 296.022C149.307 296.417 150.826 297.215 152.092 298.416C153.358 299.617 154.246 301.169 154.755 303.07C155.252 304.924 155.255 306.7 154.766 308.396C154.27 310.07 153.357 311.532 152.028 312.782C150.698 314.033 149.048 314.922 147.078 315.45ZM145.885 310.999C146.789 310.757 147.545 310.331 148.151 309.721C148.758 309.111 149.168 308.368 149.38 307.491C149.586 306.591 149.546 305.608 149.261 304.542C148.969 303.452 148.512 302.581 147.889 301.928C147.267 301.274 146.541 300.835 145.71 300.611C144.88 300.386 144.013 300.395 143.108 300.637C142.204 300.879 141.449 301.305 140.842 301.915C140.235 302.525 139.814 303.271 139.579 304.154C139.366 305.031 139.406 306.014 139.698 307.104C139.984 308.17 140.441 309.042 141.069 309.718C141.715 310.365 142.453 310.801 143.283 311.026C144.114 311.25 144.981 311.242 145.885 310.999ZM172.057 308.459L171.078 304.808L170.516 304.101L168.765 297.564C168.454 296.405 167.853 295.597 166.96 295.14C166.091 294.678 164.926 294.642 163.465 295.033C162.468 295.3 161.527 295.727 160.64 296.312C159.77 296.868 159.071 297.503 158.541 298.216L155.578 294.948C156.406 293.956 157.485 293.07 158.817 292.291C160.149 291.512 161.556 290.923 163.04 290.526C165.891 289.762 168.285 289.841 170.222 290.763C172.159 291.685 173.509 293.572 174.273 296.423L177.134 307.099L172.057 308.459ZM166.428 310.265C164.968 310.657 163.651 310.749 162.477 310.541C161.297 310.311 160.314 309.841 159.528 309.133C158.742 308.424 158.206 307.536 157.92 306.47C157.622 305.357 157.628 304.312 157.937 303.335C158.27 302.351 158.966 301.469 160.024 300.689C161.075 299.885 162.552 299.229 164.453 298.719L169.425 297.387L170.273 300.551L165.892 301.725C164.617 302.067 163.792 302.512 163.417 303.059C163.065 303.601 162.973 304.185 163.141 304.81C163.327 305.506 163.743 305.991 164.388 306.265C165.05 306.51 165.856 306.505 166.806 306.251C167.71 306.009 168.466 305.582 169.073 304.973C169.673 304.34 170.024 303.562 170.125 302.641L171.63 304.921C171.559 306.232 171.086 307.34 170.211 308.246C169.335 309.151 168.074 309.824 166.428 310.265ZM182.043 305.783L177.03 287.075L182.212 285.687L183.628 290.972L182.488 289.638C182.69 288.168 183.315 286.932 184.364 285.93C185.406 284.905 186.808 284.157 188.57 283.685L189.912 288.692C189.674 288.731 189.462 288.776 189.277 288.825C189.085 288.852 188.885 288.893 188.676 288.949C187.193 289.346 186.102 290.098 185.405 291.205C184.724 292.281 184.623 293.712 185.101 295.497L187.468 304.33L182.043 305.783ZM204.854 299.969C203.093 300.441 201.399 300.473 199.774 300.063C198.142 299.631 196.717 298.808 195.497 297.594C194.3 296.374 193.441 294.791 192.919 292.843C192.391 290.873 192.341 289.06 192.767 287.406C193.216 285.745 194.042 284.331 195.245 283.164C196.448 281.996 197.931 281.177 199.692 280.705C201.269 280.282 202.741 280.26 204.11 280.639C205.479 281.018 206.677 281.827 207.705 283.067C208.733 284.308 209.542 286.029 210.132 288.231C210.716 290.41 210.888 292.302 210.647 293.907C210.4 295.489 209.778 296.786 208.782 297.799C207.81 298.805 206.5 299.528 204.854 299.969ZM204.601 295.267C205.482 295.031 206.225 294.608 206.832 293.998C207.439 293.388 207.849 292.645 208.061 291.768C208.29 290.862 208.262 289.875 207.976 288.809C207.684 287.719 207.216 286.851 206.57 286.204C205.948 285.551 205.222 285.112 204.391 284.887C203.561 284.662 202.705 284.668 201.824 284.904C200.92 285.146 200.164 285.572 199.558 286.182C198.951 286.792 198.53 287.539 198.294 288.422C198.082 289.298 198.122 290.282 198.414 291.371C198.699 292.438 199.156 293.309 199.785 293.985C200.43 294.632 201.168 295.068 201.999 295.293C202.829 295.518 203.697 295.509 204.601 295.267ZM210.622 298.126L209.597 294.301L208.21 288.709L206.381 283.273L203.465 272.389L208.889 270.936L215.803 296.737L210.622 298.126Z" fill="#0EA5E9"/>
<path d="M244.493 289.05L239.48 270.342L244.661 268.954L246.077 274.239L244.937 272.905C245.14 271.434 245.765 270.198 246.813 269.197C247.856 268.172 249.258 267.424 251.02 266.952L252.361 271.959C252.123 271.998 251.912 272.042 251.726 272.092C251.535 272.118 251.334 272.16 251.126 272.216C249.642 272.613 248.552 273.365 247.854 274.471C247.174 275.548 247.072 276.979 247.551 278.764L249.917 287.596L244.493 289.05ZM268.556 282.9C266.423 283.472 264.433 283.558 262.587 283.158C260.764 282.752 259.219 281.948 257.953 280.747C256.681 279.523 255.796 277.983 255.299 276.129C254.796 274.251 254.781 272.478 255.254 270.811C255.743 269.115 256.633 267.659 257.922 266.444C259.205 265.205 260.797 264.332 262.698 263.822C264.53 263.332 266.281 263.285 267.953 263.682C269.642 264.049 271.111 264.848 272.36 266.079C273.602 267.286 274.494 268.898 275.034 270.915C275.09 271.124 275.144 271.37 275.195 271.655C275.241 271.916 275.283 272.166 275.322 272.404L260.126 276.475L259.278 273.311L271.622 270.003L269.787 271.501C269.526 270.528 269.103 269.734 268.516 269.121C267.929 268.508 267.236 268.098 266.434 267.89C265.627 267.659 264.76 267.668 263.833 267.916C262.905 268.165 262.138 268.594 261.531 269.204C260.942 269.784 260.549 270.498 260.354 271.346C260.152 272.17 260.185 273.08 260.452 274.077L260.676 274.912C260.949 275.932 261.411 276.777 262.063 277.447C262.732 278.088 263.528 278.508 264.451 278.708C265.391 278.878 266.417 278.815 267.53 278.516C268.527 278.249 269.356 277.866 270.017 277.366C270.701 276.859 271.276 276.221 271.74 275.45L275.465 277.807C274.868 279.01 273.992 280.052 272.837 280.933C271.675 281.791 270.248 282.447 268.556 282.9ZM292.1 276.294L291.121 272.642L290.559 271.936L288.808 265.398C288.497 264.239 287.895 263.432 287.003 262.975C286.133 262.512 284.969 262.477 283.508 262.868C282.511 263.135 281.569 263.561 280.683 264.147C279.813 264.703 279.113 265.337 278.584 266.051L275.621 262.782C276.449 261.79 277.528 260.905 278.86 260.125C280.192 259.346 281.599 258.758 283.083 258.36C285.934 257.596 288.328 257.675 290.265 258.598C292.202 259.52 293.552 261.406 294.316 264.258L297.177 274.933L292.1 276.294ZM286.471 278.1C285.011 278.491 283.694 278.583 282.52 278.376C281.34 278.145 280.357 277.676 279.571 276.967C278.785 276.259 278.249 275.371 277.963 274.305C277.665 273.192 277.671 272.147 277.98 271.169C278.313 270.186 279.008 269.304 280.066 268.523C281.118 267.72 282.595 267.063 284.496 266.554L289.468 265.221L290.316 268.386L285.935 269.56C284.66 269.901 283.835 270.346 283.46 270.894C283.108 271.435 283.016 272.019 283.183 272.645C283.37 273.34 283.786 273.825 284.431 274.1C285.092 274.345 285.899 274.34 286.849 274.085C287.753 273.843 288.509 273.417 289.116 272.807C289.716 272.174 290.067 271.397 290.168 270.475L291.673 272.755C291.602 274.066 291.129 275.175 290.253 276.08C289.378 276.986 288.117 277.659 286.471 278.1ZM310.329 271.707C308.567 272.179 306.874 272.211 305.248 271.801C303.617 271.369 302.191 270.546 300.972 269.332C299.775 268.112 298.916 266.529 298.394 264.581C297.866 262.611 297.815 260.798 298.242 259.144C298.691 257.483 299.517 256.069 300.72 254.902C301.923 253.734 303.405 252.915 305.167 252.443C306.744 252.02 308.216 251.999 309.585 252.377C310.953 252.756 312.152 253.565 313.18 254.806C314.208 256.046 315.017 257.767 315.607 259.969C316.191 262.148 316.362 264.04 316.122 265.645C315.875 267.227 315.253 268.524 314.257 269.537C313.284 270.543 311.975 271.266 310.329 271.707ZM310.075 267.005C310.956 266.769 311.7 266.346 312.307 265.736C312.914 265.126 313.323 264.383 313.536 263.506C313.765 262.6 313.737 261.613 313.451 260.547C313.159 259.457 312.69 258.589 312.045 257.942C311.423 257.289 310.696 256.85 309.866 256.625C309.035 256.401 308.18 256.406 307.299 256.642C306.395 256.884 305.639 257.311 305.032 257.92C304.425 258.53 304.004 259.277 303.769 260.16C303.557 261.037 303.596 262.02 303.888 263.109C304.174 264.176 304.631 265.047 305.26 265.723C305.905 266.37 306.643 266.806 307.473 267.031C308.304 267.256 309.171 267.247 310.075 267.005ZM316.096 269.864L315.072 266.039L313.685 260.447L311.856 255.011L308.939 244.127L314.364 242.674L321.278 268.475L316.096 269.864ZM326.298 267.13L321.286 248.422L326.71 246.969L331.723 265.677L326.298 267.13ZM323.299 245.087C322.302 245.354 321.413 245.282 320.632 244.87C319.851 244.458 319.345 243.824 319.115 242.966C318.886 242.108 319.006 241.306 319.477 240.558C319.947 239.811 320.681 239.304 321.678 239.037C322.675 238.77 323.561 238.83 324.336 239.219C325.104 239.585 325.604 240.196 325.834 241.054C326.076 241.958 325.965 242.795 325.5 243.566C325.053 244.307 324.319 244.814 323.299 245.087ZM343.041 242.295C344.525 241.897 345.927 241.844 347.247 242.136C348.585 242.399 349.755 243.055 350.756 244.103C351.751 245.129 352.504 246.592 353.013 248.493L355.883 259.203L350.458 260.657L347.812 250.781C347.408 249.274 346.774 248.251 345.909 247.713C345.068 247.168 344.044 247.057 342.838 247.38C341.981 247.61 341.254 248.004 340.658 248.561C340.079 249.089 339.691 249.776 339.496 250.624C339.324 251.465 339.393 252.465 339.704 253.624L342.182 262.874L336.758 264.328L331.745 245.62L336.926 244.231L338.314 249.412L336.921 248.109C337.258 246.677 337.962 245.457 339.034 244.449C340.106 243.441 341.442 242.723 343.041 242.295ZM371.616 262.516C369.854 262.988 368.091 263.224 366.327 263.225C364.592 263.242 363.065 262.968 361.746 262.403L362.858 257.93C363.821 258.368 364.954 258.611 366.259 258.659C367.593 258.724 368.851 258.598 370.034 258.281C371.958 257.766 373.234 256.964 373.862 255.876C374.513 254.783 374.612 253.39 374.158 251.697L373.403 248.881L372.493 244.093L371.157 239.382L370.076 235.349L375.222 233.97L379.397 249.548C380.328 253.026 380.111 255.829 378.743 257.96C377.376 260.09 375 261.609 371.616 262.516ZM368.657 254.811C366.918 255.277 365.242 255.329 363.629 254.966C362.033 254.573 360.626 253.82 359.408 252.705C358.207 251.561 357.365 250.085 356.88 248.277C356.389 246.445 356.381 244.745 356.855 243.177C357.347 241.58 358.188 240.224 359.381 239.109C360.596 237.988 362.073 237.195 363.812 236.729C365.388 236.307 366.866 236.259 368.245 236.585C369.619 236.888 370.821 237.621 371.854 238.786C372.88 239.927 373.673 241.541 374.232 243.627C374.785 245.69 374.905 247.484 374.593 249.009C374.275 250.511 373.6 251.747 372.569 252.719C371.537 253.692 370.233 254.389 368.657 254.811ZM368.542 250.071C369.493 249.817 370.289 249.405 370.931 248.835C371.568 248.242 372.001 247.542 372.232 246.735C372.463 245.927 372.457 245.072 372.215 244.168C371.967 243.24 371.544 242.496 370.946 241.936C370.343 241.352 369.62 240.974 368.779 240.802C367.932 240.607 367.033 240.637 366.082 240.891C365.132 241.146 364.338 241.57 363.702 242.163C363.06 242.732 362.611 243.424 362.357 244.237C362.12 245.021 362.126 245.877 362.374 246.804C362.617 247.709 363.04 248.452 363.643 249.036C364.27 249.613 365.007 250 365.855 250.195C366.696 250.367 367.592 250.326 368.542 250.071Z" fill="#0EA5E9"/>
<path d="M118.583 393.186L106.824 376.286L111.935 374.916L121.848 389.516L119.414 390.168L120.942 372.503L125.532 371.273L135.514 385.854L133.08 386.506L134.538 368.86L139.337 367.574L137.569 388.099L132.318 389.506L123.646 377.033L125.246 376.604L123.799 391.788L118.583 393.186ZM146.872 385.606L141.859 366.898L147.04 365.51L148.456 370.795L147.316 369.461C147.518 367.99 148.144 366.754 149.192 365.753C150.235 364.728 151.637 363.98 153.398 363.508L154.74 368.515C154.502 368.554 154.29 368.598 154.105 368.648C153.913 368.675 153.713 368.716 153.505 368.772C152.021 369.169 150.93 369.921 150.233 371.027C149.552 372.104 149.451 373.535 149.93 375.32L152.296 384.153L146.872 385.606ZM161.745 381.621L156.732 362.913L162.157 361.459L167.17 380.167L161.745 381.621ZM158.746 359.578C157.749 359.845 156.86 359.773 156.079 359.361C155.298 358.949 154.792 358.314 154.562 357.456C154.333 356.599 154.453 355.796 154.924 355.049C155.394 354.302 156.128 353.794 157.125 353.527C158.122 353.26 159.008 353.321 159.783 353.71C160.551 354.075 161.051 354.687 161.28 355.544C161.523 356.449 161.412 357.286 160.947 358.056C160.5 358.797 159.766 359.305 158.746 359.578ZM179.929 377.046C177.727 377.637 175.862 377.54 174.335 376.756C172.802 375.95 171.738 374.434 171.141 372.208L166.744 355.795L172.168 354.341L176.547 370.685C176.759 371.473 177.132 372.032 177.667 372.36C178.196 372.666 178.82 372.722 179.539 372.53C180.397 372.3 181.065 371.872 181.543 371.247L184.029 374.681C183.578 375.224 182.986 375.706 182.254 376.125C181.539 376.516 180.764 376.823 179.929 377.046ZM166.196 365.296L165.078 361.124L178.048 357.648L179.167 361.821L166.196 365.296ZM196.098 372.714C193.965 373.286 191.975 373.371 190.129 372.972C188.306 372.566 186.761 371.762 185.495 370.561C184.223 369.336 183.338 367.797 182.841 365.942C182.338 364.065 182.323 362.292 182.796 360.625C183.285 358.929 184.175 357.473 185.464 356.258C186.747 355.019 188.339 354.145 190.24 353.636C192.072 353.145 193.823 353.098 195.495 353.495C197.184 353.863 198.652 354.662 199.901 355.892C201.144 357.1 202.036 358.712 202.576 360.729C202.632 360.938 202.686 361.184 202.737 361.468C202.782 361.73 202.824 361.979 202.863 362.217L187.667 366.289L186.82 363.125L199.164 359.817L197.329 361.315C197.068 360.341 196.645 359.548 196.058 358.935C195.471 358.322 194.777 357.911 193.976 357.704C193.169 357.473 192.302 357.482 191.375 357.73C190.447 357.978 189.68 358.408 189.073 359.017C188.483 359.598 188.091 360.312 187.896 361.159C187.694 361.984 187.727 362.894 187.994 363.891L188.218 364.725C188.491 365.745 188.953 366.591 189.605 367.261C190.274 367.902 191.07 368.322 191.993 368.522C192.933 368.692 193.959 368.628 195.072 368.33C196.069 368.063 196.898 367.679 197.559 367.179C198.243 366.673 198.818 366.035 199.282 365.264L203.007 367.62C202.41 368.824 201.534 369.866 200.378 370.747C199.217 371.605 197.79 372.261 196.098 372.714Z" fill="#0EA5E9"/>
<path d="M236.426 361.61L224.667 344.71L229.778 343.34L239.691 357.94L237.257 358.592L238.785 340.927L243.375 339.697L253.357 354.278L250.923 354.93L252.381 337.284L257.18 335.998L255.412 356.523L250.161 357.93L241.489 345.457L243.089 345.028L241.642 360.212L236.426 361.61ZM264.715 354.03L259.702 335.322L264.883 333.934L266.299 339.219L265.159 337.885C265.361 336.414 265.987 335.179 267.035 334.177C268.078 333.152 269.48 332.404 271.242 331.932L272.583 336.939C272.345 336.978 272.133 337.022 271.948 337.072C271.756 337.099 271.556 337.14 271.348 337.196C269.864 337.593 268.773 338.345 268.076 339.451C267.395 340.528 267.294 341.959 267.773 343.744L270.139 352.577L264.715 354.03ZM288.395 347.983C286.401 348.517 284.516 348.575 282.739 348.157C280.986 347.732 279.464 346.922 278.175 345.727C276.903 344.503 276.018 342.963 275.521 341.109C275.018 339.231 275.014 337.456 275.51 335.782C276.023 334.08 276.936 332.617 278.248 331.396C279.578 330.145 281.239 329.253 283.233 328.719C285.204 328.191 287.077 328.136 288.854 328.554C290.625 328.949 292.143 329.748 293.409 330.949C294.675 332.15 295.563 333.701 296.072 335.602C296.569 337.457 296.573 339.232 296.083 340.929C295.587 342.602 294.675 344.064 293.345 345.315C292.016 346.566 290.366 347.455 288.395 347.983ZM287.202 343.532C288.107 343.29 288.862 342.864 289.469 342.254C290.076 341.644 290.485 340.901 290.698 340.024C290.904 339.124 290.864 338.141 290.578 337.074C290.286 335.985 289.829 335.113 289.207 334.46C288.584 333.807 287.858 333.368 287.028 333.143C286.197 332.919 285.33 332.927 284.426 333.17C283.522 333.412 282.766 333.838 282.159 334.448C281.553 335.058 281.131 335.804 280.896 336.687C280.684 337.564 280.723 338.547 281.015 339.637C281.301 340.703 281.758 341.574 282.387 342.251C283.032 342.898 283.77 343.334 284.601 343.558C285.431 343.783 286.298 343.774 287.202 343.532ZM309.929 342.213C307.727 342.803 305.862 342.706 304.336 341.923C302.803 341.116 301.738 339.6 301.142 337.375L296.744 320.962L302.168 319.508L306.548 335.852C306.759 336.64 307.132 337.198 307.667 337.527C308.196 337.832 308.82 337.889 309.539 337.696C310.397 337.466 311.065 337.039 311.543 336.414L314.029 339.847C313.578 340.391 312.986 340.872 312.254 341.292C311.539 341.682 310.764 341.989 309.929 342.213ZM296.196 330.463L295.078 326.29L308.049 322.815L309.167 326.988L296.196 330.463ZM326.098 337.881C323.965 338.452 321.975 338.538 320.129 338.138C318.306 337.732 316.761 336.929 315.495 335.727C314.223 334.503 313.338 332.964 312.841 331.109C312.338 329.231 312.323 327.459 312.796 325.792C313.285 324.095 314.175 322.639 315.464 321.424C316.747 320.186 318.339 319.312 320.24 318.803C322.072 318.312 323.823 318.265 325.495 318.662C327.184 319.029 328.653 319.828 329.902 321.059C331.144 322.266 332.036 323.879 332.577 325.896C332.632 326.104 332.686 326.351 332.737 326.635C332.783 326.896 332.825 327.146 332.864 327.384L317.668 331.456L316.82 328.291L329.164 324.984L327.329 326.482C327.068 325.508 326.645 324.715 326.058 324.101C325.471 323.488 324.778 323.078 323.976 322.87C323.169 322.639 322.302 322.648 321.375 322.897C320.447 323.145 319.68 323.574 319.073 324.184C318.484 324.764 318.091 325.478 317.896 326.326C317.694 327.15 317.727 328.061 317.994 329.057L318.218 329.892C318.491 330.912 318.953 331.757 319.605 332.427C320.274 333.068 321.07 333.488 321.993 333.688C322.933 333.859 323.959 333.795 325.072 333.497C326.069 333.23 326.898 332.846 327.559 332.346C328.243 331.84 328.818 331.201 329.282 330.431L333.007 332.787C332.41 333.99 331.534 335.033 330.379 335.914C329.217 336.772 327.79 337.427 326.098 337.881Z" fill="#0EA5E9"/>
</g>
</g>
<defs>
<linearGradient id="paint0_linear_1359_3796" x1="360" y1="180" x2="0" y2="180" gradientUnits="userSpaceOnUse">
<stop stop-color="#0369A1"/>
<stop offset="1" stop-color="#0EA5E9"/>
</linearGradient>
<clipPath id="clip0_1359_3796">
<rect width="360" height="360" rx="180" fill="white"/>
</clipPath>
<clipPath id="clip1_1359_3796">
<rect x="-86" y="114.645" width="470" height="331" rx="100" transform="rotate(-15 -86 114.645)" fill="white"/>
</clipPath>
</defs>
</svg>
