<svg width="360" height="360" viewBox="0 0 360 360" fill="none" xmlns="http://www.w3.org/2000/svg">
<g clip-path="url(#clip0_1359_3898)">
<rect width="360" height="360" rx="180" fill="url(#paint0_linear_1359_3898)"/>
<path d="M34.5624 127.598C32.3601 128.188 30.4955 128.091 28.9687 127.308C27.4357 126.501 26.371 124.985 25.7747 122.76L21.3768 106.347L26.8015 104.893L31.1807 121.237C31.3919 122.025 31.7651 122.583 32.3004 122.912C32.8295 123.217 33.4534 123.274 34.1721 123.081C35.0298 122.851 35.6979 122.424 36.1764 121.799L38.6618 125.232C38.2111 125.776 37.6195 126.257 36.8872 126.677C36.1719 127.067 35.397 127.374 34.5624 127.598ZM20.8293 115.848L19.7112 111.675L32.6817 108.2L33.7998 112.373L20.8293 115.848ZM45.8563 131.802C44.8827 132.063 43.8802 132.17 42.849 132.124C41.8178 132.077 40.9294 131.868 40.1838 131.496L41.1316 127.105C41.6483 127.364 42.2012 127.527 42.7903 127.592C43.4025 127.652 43.9753 127.61 44.5085 127.467C45.2735 127.262 45.8265 126.915 46.1676 126.426C46.5381 125.955 46.7969 125.252 46.9442 124.318L47.3029 121.762L47.5618 121.059L49.9498 103.126L55.1658 101.728L52.0361 123.848C51.8371 125.516 51.4585 126.885 50.9001 127.954C50.3649 129.016 49.6687 129.849 48.8114 130.451C47.9773 131.048 46.9923 131.498 45.8563 131.802ZM47.369 124.651L33.8149 107.449L39.4134 105.949L50.0742 119.864L47.369 124.651ZM73.5246 117.158C71.9482 117.581 70.4757 117.602 69.107 117.224C67.7384 116.845 66.5285 116.039 65.4773 114.805C64.443 113.541 63.634 111.82 63.0501 109.641C62.46 107.439 62.2884 105.547 62.5354 103.965C62.7824 102.383 63.4039 101.086 64.3999 100.074C65.3958 99.0614 66.7167 98.3348 68.3627 97.8937C70.1245 97.4216 71.8096 97.4049 73.418 97.8436C75.0433 98.2529 76.4542 99.0675 77.6507 100.287C78.8704 101.501 79.7411 103.082 80.2629 105.029C80.7909 106.999 80.8301 108.815 80.3807 110.476C79.9545 112.131 79.1399 113.542 77.9369 114.709C76.7572 115.87 75.2864 116.686 73.5246 117.158ZM64.1997 126.589L57.3793 101.135L62.5605 99.7466L63.5855 103.572L64.9719 109.163L66.8011 114.599L69.6243 125.135L64.1997 126.589ZM71.393 112.959C72.2972 112.716 73.041 112.294 73.6247 111.69C74.2315 111.08 74.6411 110.337 74.8534 109.46C75.0827 108.554 75.0544 107.567 74.7687 106.501C74.4767 105.411 74.008 104.543 73.3626 103.896C72.7403 103.243 72.014 102.804 71.1835 102.579C70.3762 102.348 69.5205 102.354 68.6164 102.596C67.7123 102.839 66.9569 103.265 66.35 103.874C65.7432 104.484 65.3336 105.228 65.1213 106.104C64.909 106.981 64.9488 107.964 65.2408 109.054C65.5265 110.12 65.9836 110.992 66.6121 111.668C67.2344 112.321 67.9607 112.76 68.7912 112.985C69.6217 113.21 70.4889 113.201 71.393 112.959ZM86.4006 113.41L81.3878 94.7018L86.8125 93.2483L91.8253 111.956L86.4006 113.41ZM83.4013 91.367C82.4045 91.6342 81.5155 91.5618 80.7343 91.1499C79.9531 90.7381 79.4475 90.1033 79.2177 89.2456C78.9879 88.3878 79.1083 87.5853 79.5789 86.838C80.0495 86.0908 80.7833 85.5836 81.7801 85.3165C82.7769 85.0494 83.6629 85.1102 84.4379 85.4988C85.2066 85.8643 85.706 86.4759 85.9358 87.3337C86.178 88.2378 86.067 89.075 85.6025 89.8455C85.1551 90.5866 84.4214 91.0937 83.4013 91.367ZM103.143 88.5743C104.627 88.1767 106.029 88.124 107.35 88.4162C108.687 88.679 109.857 89.3346 110.858 90.3831C111.854 91.4085 112.606 92.8716 113.115 94.7725L115.985 105.483L110.561 106.936L107.914 97.0606C107.511 95.5538 106.876 94.5311 106.011 93.9926C105.17 93.4479 104.146 93.337 102.941 93.66C102.083 93.8898 101.356 94.2834 100.76 94.8407C100.181 95.3685 99.7937 96.0562 99.5983 96.9036C99.4262 97.7448 99.4954 98.745 99.806 99.9041L102.284 109.154L96.8598 110.607L91.847 91.8993L97.0282 90.511L98.4165 95.6922L97.0236 94.3883C97.3605 92.9563 98.0647 91.7365 99.1364 90.7288C100.208 89.721 101.544 89.0029 103.143 88.5743ZM131.718 108.796C129.956 109.268 128.193 109.504 126.429 109.505C124.695 109.522 123.168 109.248 121.848 108.682L122.961 104.21C123.923 104.648 125.056 104.891 126.361 104.939C127.695 105.004 128.954 104.878 130.136 104.561C132.06 104.045 133.336 103.244 133.964 102.156C134.615 101.062 134.714 99.6693 134.26 97.977L133.506 95.1603L132.596 90.3728L131.259 85.6622L130.178 81.6285L135.325 80.2495L139.499 95.828C140.431 99.3053 140.213 102.109 138.846 104.24C137.478 106.37 135.103 107.889 131.718 108.796ZM128.759 101.091C127.02 101.557 125.345 101.608 123.732 101.245C122.136 100.853 120.729 100.1 119.511 98.9848C118.31 97.8407 117.467 96.3645 116.982 94.5563C116.492 92.7249 116.483 91.0251 116.958 89.4569C117.449 87.8593 118.291 86.5033 119.483 85.3888C120.698 84.268 122.175 83.4747 123.914 83.0088C125.49 82.5864 126.968 82.5383 128.348 82.8644C129.721 83.1673 130.924 83.901 131.956 85.0654C132.983 86.2067 133.775 87.8205 134.334 89.9069C134.887 91.9701 135.008 93.7641 134.696 95.2888C134.377 96.7903 133.702 98.0271 132.671 98.9992C131.639 99.9713 130.335 100.669 128.759 101.091ZM128.644 96.3511C129.595 96.0965 130.391 95.6843 131.034 95.1146C131.67 94.5217 132.104 93.8216 132.334 93.0144C132.565 92.2071 132.56 91.3514 132.317 90.4473C132.069 89.52 131.646 88.7761 131.049 88.2156C130.445 87.632 129.723 87.2541 128.881 87.0819C128.034 86.8866 127.135 86.9163 126.184 87.171C125.234 87.4257 124.441 87.8494 123.804 88.4423C123.162 89.012 122.714 89.7036 122.46 90.5171C122.222 91.3012 122.228 92.1569 122.477 93.0841C122.719 93.9882 123.142 94.7321 123.745 95.3158C124.372 95.8932 125.109 96.2796 125.957 96.4749C126.798 96.6471 127.694 96.6058 128.644 96.3511Z" fill="#F97316"/>
<path d="M168.829 91.3233L161.915 65.5215L167.34 64.068L174.254 89.8698L168.829 91.3233ZM179.288 88.5208L174.275 69.8127L179.7 68.3592L184.713 87.0673L179.288 88.5208ZM176.289 66.478C175.292 66.7451 174.403 66.6727 173.622 66.2609C172.841 65.849 172.335 65.2142 172.105 64.3565C171.875 63.4987 171.996 62.6962 172.466 61.949C172.937 61.2017 173.671 60.6945 174.668 60.4274C175.664 60.1603 176.55 60.2211 177.325 60.6097C178.094 60.9752 178.593 61.5868 178.823 62.4446C179.066 63.3487 178.954 64.186 178.49 64.9564C178.043 65.6975 177.309 66.2047 176.289 66.478ZM196.116 84.31C194.516 84.7386 192.925 84.9662 191.342 84.9928C189.776 84.9901 188.486 84.8138 187.473 84.4641L188.238 80.085C189.238 80.3883 190.365 80.5586 191.617 80.5957C192.886 80.6035 194.089 80.4552 195.225 80.1508C196.477 79.8154 197.317 79.4287 197.747 78.9906C198.199 78.5464 198.354 78.0577 198.211 77.5245C198.093 77.084 197.797 76.8154 197.324 76.7186C196.868 76.5923 196.288 76.5613 195.585 76.6256C194.881 76.6898 194.109 76.7727 193.266 76.8742C192.447 76.9694 191.607 77.0331 190.746 77.065C189.878 77.0738 189.056 76.9712 188.278 76.7572C187.5 76.5433 186.812 76.156 186.215 75.5956C185.641 75.0289 185.211 74.2123 184.925 73.146C184.608 71.9637 184.665 70.8304 185.095 69.7462C185.548 68.6557 186.355 67.6815 187.517 66.8237C188.672 65.9426 190.154 65.2599 191.962 64.7754C193.237 64.4337 194.573 64.225 195.969 64.1491C197.365 64.0732 198.575 64.1838 199.598 64.481L198.824 68.8253C197.777 68.5344 196.765 68.4204 195.788 68.4834C194.828 68.517 193.92 68.6488 193.062 68.8786C191.856 69.2016 191.019 69.5999 190.549 70.0736C190.08 70.5472 189.914 71.039 190.05 71.549C190.175 72.0127 190.465 72.3076 190.921 72.4338C191.4 72.5538 191.995 72.5933 192.704 72.5523C193.414 72.5112 194.178 72.4431 194.998 72.3478C195.834 72.2231 196.686 72.1564 197.553 72.1476C198.42 72.1388 199.231 72.2445 199.986 72.4647C200.758 72.6555 201.442 73.0311 202.04 73.5916C202.631 74.1289 203.069 74.9307 203.355 75.9971C203.666 77.1562 203.594 78.281 203.141 79.3715C202.682 80.4387 201.859 81.4044 200.675 82.2685C199.513 83.1263 197.994 83.8068 196.116 84.31ZM215.945 78.9967C213.743 79.5868 211.878 79.4901 210.352 78.7066C208.819 77.8998 207.754 76.3837 207.158 74.1582L202.76 57.7452L208.184 56.2917L212.564 72.6352C212.775 73.4234 213.148 73.9818 213.683 74.3104C214.212 74.6159 214.836 74.6724 215.555 74.4798C216.413 74.25 217.081 73.8225 217.559 73.1973L220.045 76.6311C219.594 77.1743 219.002 77.6558 218.27 78.0756C217.555 78.466 216.78 78.7731 215.945 78.9967ZM202.212 67.2467L201.094 63.0739L214.065 59.5985L215.183 63.7713L202.212 67.2467ZM232.114 74.6643C229.981 75.2358 227.991 75.3217 226.145 74.9219C224.322 74.516 222.777 73.7124 221.511 72.5111C220.239 71.2867 219.354 69.7472 218.857 67.8926C218.354 66.0148 218.339 64.2424 218.812 62.5753C219.301 60.8787 220.191 59.4229 221.48 58.2078C222.763 56.9695 224.355 56.0956 226.256 55.5863C228.088 55.0956 229.839 55.0486 231.511 55.4455C233.2 55.8129 234.669 56.612 235.918 57.8427C237.16 59.0501 238.052 60.6623 238.593 62.6791C238.648 62.8878 238.702 63.1343 238.753 63.4187C238.799 63.6799 238.841 63.9295 238.88 64.1676L223.684 68.2393L222.836 65.0749L235.18 61.7672L233.345 63.2652C233.085 62.2915 232.661 61.4982 232.074 60.8851C231.487 60.2721 230.794 59.8617 229.993 59.6539C229.185 59.423 228.318 59.4317 227.391 59.6802C226.463 59.9287 225.696 60.3578 225.089 60.9677C224.5 61.5481 224.107 62.2621 223.912 63.1095C223.71 63.9337 223.743 64.8443 224.01 65.8411L224.234 66.6757C224.507 67.6957 224.969 68.5408 225.621 69.211C226.29 69.8517 227.086 70.2721 228.009 70.4719C228.949 70.6424 229.975 70.5786 231.088 70.2804C232.085 70.0133 232.914 69.6297 233.575 69.1295C234.259 68.6232 234.834 67.9848 235.298 67.2143L239.023 69.5706C238.426 70.7741 237.55 71.8163 236.395 72.6974C235.233 73.5552 233.806 74.2109 232.114 74.6643ZM250.975 48.9629C252.459 48.5653 253.861 48.5126 255.182 48.8048C256.519 49.0675 257.689 49.7232 258.69 50.7717C259.686 51.797 260.438 53.2602 260.947 55.1611L263.817 65.8713L258.393 67.3248L255.746 57.4492C255.343 55.9423 254.708 54.9197 253.843 54.3812C253.002 53.8364 251.978 53.7256 250.773 54.0486C249.915 54.2784 249.188 54.672 248.592 55.2292C248.013 55.7571 247.626 56.4448 247.43 57.2922C247.258 58.1334 247.327 59.1336 247.638 60.2927L250.116 69.5424L244.692 70.9959L239.679 52.2879L244.86 50.8995L246.249 56.0808L244.856 54.7769C245.192 53.3449 245.897 52.125 246.968 51.1173C248.04 50.1096 249.376 49.3915 250.975 48.9629ZM268.734 64.5537L263.722 45.8457L269.146 44.3922L274.159 63.1002L268.734 64.5537ZM265.735 42.5109C264.738 42.778 263.849 42.7057 263.068 42.2938C262.287 41.882 261.781 41.2472 261.551 40.3894C261.322 39.5317 261.442 38.7292 261.913 37.9819C262.383 37.2347 263.117 36.7275 264.114 36.4604C265.111 36.1933 265.997 36.254 266.772 36.6427C267.54 37.0082 268.04 37.6198 268.269 38.4775C268.512 39.3816 268.401 40.2189 267.936 40.9894C267.489 41.7304 266.755 42.2376 265.735 42.5109ZM285.477 39.7182C286.961 39.3206 288.363 39.2679 289.683 39.5601C291.021 39.8228 292.191 40.4785 293.192 41.527C294.187 42.5523 294.94 44.0155 295.449 45.9164L298.319 56.6266L292.894 58.0801L290.248 48.2045C289.844 46.6977 289.21 45.675 288.345 45.1365C287.503 44.5917 286.48 44.4809 285.274 44.8039C284.417 45.0337 283.69 45.4273 283.094 45.9845C282.515 46.5124 282.127 47.2001 281.932 48.0475C281.76 48.8887 281.829 49.8889 282.14 51.048L284.618 60.2977L279.194 61.7512L274.181 43.0432L279.362 41.6549L280.75 46.8361L279.357 45.5322C279.694 44.1002 280.398 42.8803 281.47 41.8726C282.542 40.8649 283.877 40.1468 285.477 39.7182ZM314.052 59.9395C312.29 60.4116 310.527 60.648 308.763 60.6485C307.028 60.6661 305.501 60.3919 304.182 59.8261L305.294 55.3538C306.256 55.7917 307.39 56.0346 308.695 56.0826C310.029 56.1474 311.287 56.0215 312.47 55.7047C314.394 55.1891 315.67 54.3875 316.298 53.3C316.949 52.2062 317.048 50.8131 316.594 49.1208L315.839 46.3042L314.929 41.5166L313.593 36.8061L312.512 32.7724L317.658 31.3934L321.832 46.9718C322.764 50.4492 322.547 53.2531 321.179 55.3835C319.812 57.514 317.436 59.0326 314.052 59.9395ZM311.093 52.2348C309.354 52.7007 307.678 52.7522 306.065 52.3893C304.469 51.997 303.062 51.2434 301.844 50.1287C300.643 48.9846 299.801 47.5084 299.316 45.7002C298.825 43.8688 298.817 42.169 299.291 40.6008C299.783 39.0032 300.624 37.6472 301.817 36.5326C303.032 35.4119 304.509 34.6186 306.248 34.1527C307.824 33.7303 309.302 33.6822 310.681 34.0083C312.054 34.3112 313.257 35.0448 314.29 36.2093C315.316 37.3505 316.109 38.9644 316.668 41.0508C317.221 43.114 317.341 44.9079 317.029 46.4326C316.711 47.9342 316.036 49.171 315.005 50.1431C313.973 51.1152 312.669 51.8124 311.093 52.2348ZM310.978 47.495C311.928 47.2403 312.725 46.8281 313.367 46.2585C314.004 45.6656 314.437 44.9655 314.668 44.1582C314.899 43.351 314.893 42.4953 314.651 41.5912C314.403 40.6639 313.98 39.92 313.382 39.3595C312.779 38.7759 312.056 38.398 311.215 38.2258C310.368 38.0305 309.469 38.0602 308.518 38.3149C307.568 38.5695 306.774 38.9933 306.138 39.5862C305.496 40.1559 305.047 40.8475 304.793 41.6609C304.556 42.445 304.562 43.3007 304.81 44.228C305.053 45.1321 305.475 45.876 306.079 46.4597C306.706 47.0371 307.443 47.4235 308.29 47.6188C309.132 47.791 310.028 47.7497 310.978 47.495Z" fill="#F97316"/>
<path d="M22.3416 193.726L15.4281 167.925L20.8527 166.471L27.7663 192.273L22.3416 193.726ZM32.8008 190.924L27.788 172.216L33.2126 170.762L38.2254 189.47L32.8008 190.924ZM29.8015 168.881C28.8047 169.148 27.9157 169.076 27.1344 168.664C26.3532 168.252 25.8477 167.617 25.6179 166.76C25.388 165.902 25.5084 165.099 25.9791 164.352C26.4497 163.605 27.1834 163.098 28.1803 162.83C29.1771 162.563 30.063 162.624 30.838 163.013C31.6068 163.378 32.1061 163.99 32.3359 164.848C32.5782 165.752 32.4671 166.589 32.0027 167.359C31.5553 168.101 30.8215 168.608 29.8015 168.881ZM49.6285 186.713C48.0289 187.142 46.4376 187.369 44.8546 187.396C43.2885 187.393 41.9989 187.217 40.9859 186.867L41.7505 182.488C42.7512 182.791 43.8776 182.962 45.1299 182.999C46.3991 183.007 47.6017 182.858 48.7377 182.554C49.9895 182.218 50.8301 181.832 51.2593 181.394C51.7117 180.949 51.8665 180.461 51.7237 179.928C51.6056 179.487 51.31 179.218 50.8369 179.122C50.3806 178.995 49.8009 178.964 49.0975 179.029C48.3942 179.093 47.6213 179.176 46.7789 179.277C45.9596 179.373 45.1194 179.436 44.2584 179.468C43.3911 179.477 42.5685 179.374 41.7906 179.16C41.0127 178.946 40.3251 178.559 39.7277 177.999C39.1534 177.432 38.7234 176.615 38.4377 175.549C38.1209 174.367 38.1775 173.233 38.6076 172.149C39.0608 171.059 39.8682 170.085 41.0297 169.227C42.185 168.346 43.6668 167.663 45.475 167.178C46.75 166.837 48.0855 166.628 49.4814 166.552C50.8774 166.476 52.0872 166.587 53.111 166.884L52.3371 171.228C51.2901 170.937 50.2781 170.824 49.3011 170.887C48.3411 170.92 47.4322 171.052 46.5745 171.282C45.369 171.605 44.5316 172.003 44.0622 172.477C43.5928 172.95 43.4264 173.442 43.563 173.952C43.6873 174.416 43.9775 174.711 44.4337 174.837C44.9131 174.957 45.5076 174.996 46.2171 174.955C46.9267 174.914 47.6911 174.846 48.5103 174.751C49.3466 174.626 50.1983 174.559 51.0656 174.551C51.9329 174.542 52.7439 174.648 53.4986 174.868C54.2702 175.059 54.9548 175.434 55.5522 175.995C56.1434 176.532 56.5819 177.334 56.8676 178.4C57.1782 179.559 57.1069 180.684 56.6537 181.775C56.1943 182.842 55.3722 183.807 54.1874 184.672C53.0259 185.529 51.5062 186.21 49.6285 186.713ZM69.458 181.4C67.2557 181.99 65.3911 181.893 63.8643 181.11C62.3313 180.303 61.2666 178.787 60.6703 176.561L56.2724 160.148L61.6971 158.695L66.0763 175.038C66.2875 175.826 66.6607 176.385 67.196 176.714C67.7251 177.019 68.349 177.075 69.0676 176.883C69.9254 176.653 70.5935 176.226 71.072 175.6L73.5574 179.034C73.1066 179.577 72.5151 180.059 71.7828 180.479C71.0675 180.869 70.2925 181.176 69.458 181.4ZM55.7249 169.65L54.6068 165.477L67.5773 162.002L68.6954 166.174L55.7249 169.65ZM85.6265 177.067C83.4937 177.639 81.5042 177.725 79.6578 177.325C77.8346 176.919 76.29 176.115 75.0239 174.914C73.7517 173.69 72.8671 172.15 72.3701 170.296C71.867 168.418 71.8517 166.645 72.3243 164.978C72.8139 163.282 73.7034 161.826 74.9929 160.611C76.2761 159.373 77.8682 158.499 79.7691 157.989C81.6005 157.499 83.3521 157.452 85.0237 157.849C86.7124 158.216 88.1813 159.015 89.4303 160.246C90.6732 161.453 91.5648 163.065 92.1052 165.082C92.1612 165.291 92.2148 165.537 92.2661 165.822C92.3113 166.083 92.3533 166.333 92.3923 166.571L77.1963 170.642L76.3484 167.478L88.693 164.17L86.8581 165.668C86.5972 164.695 86.1735 163.901 85.5868 163.288C85.0001 162.675 84.3063 162.265 83.5052 162.057C82.6979 161.826 81.8307 161.835 80.9034 162.083C79.9761 162.332 79.209 162.761 78.6022 163.371C78.0123 163.951 77.6197 164.665 77.4244 165.513C77.2229 166.337 77.2556 167.247 77.5227 168.244L77.7464 169.079C78.0197 170.099 78.4822 170.944 79.1338 171.614C79.8024 172.255 80.5984 172.675 81.5215 172.875C82.4617 173.045 83.4882 172.982 84.6009 172.683C85.5977 172.416 86.4267 172.033 87.0878 171.533C87.772 171.026 88.3464 170.388 88.8108 169.617L92.5355 171.974C91.9387 173.177 91.0626 174.219 89.9073 175.1C88.7457 175.958 87.3188 176.614 85.6265 177.067ZM104.488 151.366C105.972 150.968 107.374 150.916 108.694 151.208C110.032 151.471 111.202 152.126 112.203 153.175C113.198 154.2 113.951 155.663 114.46 157.564L117.33 168.274L111.905 169.728L109.259 159.852C108.855 158.345 108.221 157.323 107.356 156.784C106.515 156.24 105.491 156.129 104.285 156.452C103.428 156.681 102.701 157.075 102.105 157.632C101.526 158.16 101.138 158.848 100.943 159.695C100.771 160.536 100.84 161.537 101.151 162.696L103.629 171.945L98.2046 173.399L93.1917 154.691L98.373 153.303L99.7613 158.484L98.3683 157.18C98.7052 155.748 99.4095 154.528 100.481 153.52C101.553 152.513 102.889 151.795 104.488 151.366ZM122.247 166.957L117.234 148.249L122.659 146.795L127.672 165.503L122.247 166.957ZM119.248 144.914C118.251 145.181 117.362 145.109 116.581 144.697C115.799 144.285 115.294 143.65 115.064 142.793C114.834 141.935 114.955 141.132 115.425 140.385C115.896 139.638 116.63 139.131 117.627 138.863C118.623 138.596 119.509 138.657 120.284 139.046C121.053 139.411 121.552 140.023 121.782 140.881C122.024 141.785 121.913 142.622 121.449 143.392C121.001 144.134 120.268 144.641 119.248 144.914ZM138.99 142.121C140.473 141.724 141.876 141.671 143.196 141.963C144.534 142.226 145.703 142.882 146.705 143.93C147.7 144.955 148.452 146.419 148.962 148.319L151.832 159.03L146.407 160.483L143.761 150.608C143.357 149.101 142.723 148.078 141.858 147.54C141.016 146.995 139.993 146.884 138.787 147.207C137.929 147.437 137.202 147.83 136.606 148.388C136.027 148.915 135.64 149.603 135.445 150.451C135.273 151.292 135.342 152.292 135.652 153.451L138.131 162.701L132.706 164.154L127.693 145.446L132.875 144.058L134.263 149.239L132.87 147.935C133.207 146.503 133.911 145.283 134.983 144.276C136.055 143.268 137.39 142.55 138.99 142.121ZM167.564 162.343C165.802 162.815 164.04 163.051 162.276 163.052C160.541 163.069 159.014 162.795 157.695 162.229L158.807 157.757C159.769 158.195 160.903 158.438 162.208 158.486C163.542 158.551 164.8 158.425 165.982 158.108C167.906 157.592 169.183 156.791 169.81 155.703C170.462 154.609 170.56 153.216 170.107 151.524L169.352 148.707L168.442 143.92L167.105 139.209L166.024 135.175L171.171 133.796L175.345 149.375C176.277 152.852 176.059 155.656 174.692 157.787C173.325 159.917 170.949 161.436 167.564 162.343ZM164.605 154.638C162.867 155.104 161.191 155.155 159.578 154.792C157.982 154.4 156.575 153.647 155.357 152.532C154.156 151.388 153.313 149.911 152.829 148.103C152.338 146.272 152.33 144.572 152.804 143.004C153.295 141.406 154.137 140.05 155.329 138.936C156.545 137.815 158.022 137.022 159.76 136.556C161.337 136.133 162.815 136.085 164.194 136.411C165.567 136.714 166.77 137.448 167.803 138.612C168.829 139.754 169.622 141.367 170.181 143.454C170.734 145.517 170.854 147.311 170.542 148.836C170.224 150.337 169.549 151.574 168.517 152.546C167.486 153.518 166.182 154.216 164.605 154.638ZM164.491 149.898C165.441 149.643 166.238 149.231 166.88 148.662C167.516 148.069 167.95 147.369 168.181 146.561C168.412 145.754 168.406 144.898 168.164 143.994C167.915 143.067 167.492 142.323 166.895 141.763C166.291 141.179 165.569 140.801 164.728 140.629C163.88 140.434 162.981 140.463 162.031 140.718C161.08 140.973 160.287 141.396 159.651 141.989C159.008 142.559 158.56 143.251 158.306 144.064C158.069 144.848 158.075 145.704 158.323 146.631C158.565 147.535 158.988 148.279 159.592 148.863C160.219 149.44 160.956 149.827 161.803 150.022C162.644 150.194 163.54 150.153 164.491 149.898Z" fill="#F97316"/>
<path d="M212.626 143.038C210.424 143.628 208.559 143.531 207.033 142.748C205.5 141.941 204.435 140.425 203.839 138.2L199.441 121.787L204.865 120.333L209.245 136.676C209.456 137.465 209.829 138.023 210.364 138.352C210.894 138.657 211.517 138.714 212.236 138.521C213.094 138.291 213.762 137.864 214.24 137.239L216.726 140.672C216.275 141.216 215.683 141.697 214.951 142.117C214.236 142.507 213.461 142.814 212.626 143.038ZM198.893 131.288L197.775 127.115L210.746 123.64L211.864 127.813L198.893 131.288ZM223.92 147.242C222.947 147.503 221.944 147.61 220.913 147.563C219.882 147.517 218.993 147.308 218.248 146.936L219.196 142.545C219.712 142.804 220.265 142.966 220.854 143.032C221.466 143.092 222.039 143.05 222.572 142.907C223.337 142.702 223.89 142.355 224.232 141.866C224.602 141.394 224.861 140.691 225.008 139.758L225.367 137.202L225.626 136.499L228.014 118.566L233.23 117.168L230.1 139.288C229.901 140.956 229.522 142.325 228.964 143.394C228.429 144.456 227.733 145.289 226.875 145.891C226.041 146.487 225.056 146.938 223.92 147.242ZM225.433 140.091L211.879 122.889L217.477 121.389L228.138 135.304L225.433 140.091ZM251.589 132.598C250.012 133.02 248.54 133.042 247.171 132.664C245.802 132.285 244.592 131.479 243.541 130.245C242.507 128.981 241.698 127.26 241.114 125.081C240.524 122.879 240.352 120.987 240.599 119.405C240.846 117.823 241.468 116.526 242.464 115.514C243.46 114.501 244.781 113.775 246.427 113.334C248.188 112.862 249.874 112.845 251.482 113.284C253.107 113.693 254.518 114.507 255.715 115.727C256.934 116.941 257.805 118.521 258.327 120.469C258.855 122.439 258.894 124.255 258.445 125.916C258.018 127.571 257.204 128.982 256.001 130.149C254.821 131.31 253.35 132.126 251.589 132.598ZM242.264 142.029L235.443 116.575L240.624 115.187L241.649 119.012L243.036 124.603L244.865 130.039L247.688 140.575L242.264 142.029ZM249.457 128.399C250.361 128.156 251.105 127.733 251.689 127.13C252.295 126.52 252.705 125.777 252.917 124.9C253.147 123.994 253.118 123.007 252.833 121.941C252.541 120.851 252.072 119.983 251.427 119.336C250.804 118.683 250.078 118.244 249.247 118.019C248.44 117.788 247.585 117.794 246.68 118.036C245.776 118.278 245.021 118.705 244.414 119.314C243.807 119.924 243.398 120.668 243.185 121.544C242.973 122.421 243.013 123.404 243.305 124.494C243.59 125.56 244.048 126.432 244.676 127.108C245.298 127.761 246.025 128.2 246.855 128.425C247.686 128.65 248.553 128.641 249.457 128.399ZM264.465 128.85L259.452 110.142L264.876 108.688L269.889 127.396L264.465 128.85ZM261.465 106.807C260.468 107.074 259.579 107.002 258.798 106.59C258.017 106.178 257.512 105.543 257.282 104.686C257.052 103.828 257.172 103.025 257.643 102.278C258.114 101.531 258.847 101.024 259.844 100.756C260.841 100.489 261.727 100.55 262.502 100.939C263.271 101.304 263.77 101.916 264 102.774C264.242 103.678 264.131 104.515 263.667 105.285C263.219 106.026 262.485 106.534 261.465 106.807ZM281.207 104.014C282.691 103.617 284.093 103.564 285.414 103.856C286.751 104.119 287.921 104.775 288.922 105.823C289.918 106.848 290.67 108.312 291.179 110.212L294.049 120.923L288.624 122.376L285.978 112.501C285.575 110.994 284.94 109.971 284.075 109.433C283.234 108.888 282.21 108.777 281.005 109.1C280.147 109.33 279.42 109.723 278.824 110.281C278.245 110.808 277.858 111.496 277.662 112.344C277.49 113.185 277.559 114.185 277.87 115.344L280.348 124.594L274.924 126.047L269.911 107.339L275.092 105.951L276.481 111.132L275.088 109.828C275.424 108.396 276.129 107.176 277.2 106.169C278.272 105.161 279.608 104.443 281.207 104.014ZM309.782 124.236C308.02 124.708 306.257 124.944 304.493 124.945C302.759 124.962 301.232 124.688 299.912 124.122L301.025 119.65C301.987 120.088 303.12 120.331 304.425 120.379C305.759 120.444 307.018 120.318 308.2 120.001C310.124 119.485 311.4 118.684 312.028 117.596C312.679 116.502 312.778 115.109 312.324 113.417L311.57 110.6L310.66 105.813L309.323 101.102L308.242 97.0684L313.388 95.6895L317.563 111.268C318.494 114.745 318.277 117.549 316.91 119.68C315.542 121.81 313.166 123.329 309.782 124.236ZM306.823 116.531C305.084 116.997 303.409 117.048 301.796 116.685C300.2 116.293 298.793 115.539 297.575 114.425C296.374 113.281 295.531 111.804 295.046 109.996C294.556 108.165 294.547 106.465 295.022 104.897C295.513 103.299 296.355 101.943 297.547 100.829C298.762 99.708 300.239 98.9146 301.978 98.4488C303.554 98.0264 305.032 97.9782 306.412 98.3043C307.785 98.6072 308.988 99.3409 310.02 100.505C311.047 101.647 311.839 103.26 312.398 105.347C312.951 107.41 313.072 109.204 312.76 110.729C312.441 112.23 311.766 113.467 310.735 114.439C309.703 115.411 308.399 116.109 306.823 116.531ZM306.708 111.791C307.659 111.536 308.455 111.124 309.098 110.555C309.734 109.962 310.167 109.262 310.398 108.454C310.629 107.647 310.624 106.791 310.381 105.887C310.133 104.96 309.71 104.216 309.113 103.656C308.509 103.072 307.787 102.694 306.945 102.522C306.098 102.327 305.199 102.356 304.248 102.611C303.298 102.866 302.505 103.289 301.868 103.882C301.226 104.452 300.778 105.144 300.524 105.957C300.286 106.741 300.292 107.597 300.541 108.524C300.783 109.428 301.206 110.172 301.809 110.756C302.436 111.333 303.173 111.72 304.021 111.915C304.862 112.087 305.758 112.046 306.708 111.791Z" fill="#F97316"/>
<path d="M346.893 106.763L339.979 80.9614L345.404 79.5079L352.318 105.31L346.893 106.763ZM357.352 103.961L352.339 85.2527L357.764 83.7991L362.777 102.507L357.352 103.961ZM354.353 81.9179C353.356 82.185 352.467 82.1126 351.686 81.7008C350.904 81.289 350.399 80.6542 350.169 79.7964C349.939 78.9387 350.06 78.1362 350.53 77.3889C351.001 76.6416 351.735 76.1345 352.732 75.8674C353.728 75.6003 354.614 75.661 355.389 76.0497C356.158 76.4152 356.657 77.0268 356.887 77.8845C357.129 78.7886 357.018 79.6259 356.554 80.3964C356.107 81.1374 355.373 81.6446 354.353 81.9179ZM374.18 99.7499C372.58 100.179 370.989 100.406 369.406 100.433C367.84 100.43 366.55 100.254 365.537 99.904L366.302 95.5249C367.302 95.8283 368.429 95.9985 369.681 96.0357C370.95 96.0434 372.153 95.8951 373.289 95.5908C374.541 95.2553 375.381 94.8686 375.811 94.4306C376.263 93.9863 376.418 93.4976 376.275 92.9644C376.157 92.524 375.861 92.2553 375.388 92.1585C374.932 92.0323 374.352 92.0013 373.649 92.0655C372.945 92.1297 372.173 92.2126 371.33 92.3141C370.511 92.4094 369.671 92.473 368.81 92.5049C367.942 92.5137 367.12 92.4111 366.342 92.1972C365.564 91.9832 364.876 91.596 364.279 91.0355C363.705 90.4688 363.275 89.6523 362.989 88.5859C362.672 87.4036 362.729 86.2703 363.159 85.1861C363.612 84.0956 364.419 83.1215 365.581 82.2636C366.736 81.3826 368.218 80.6998 370.026 80.2153C371.301 79.8737 372.637 79.6649 374.033 79.589C375.429 79.5131 376.639 79.6238 377.662 79.9209L376.888 84.2653C375.841 83.9743 374.829 83.8604 373.852 83.9234C372.892 83.957 371.984 84.0887 371.126 84.3185C369.92 84.6416 369.083 85.0399 368.613 85.5135C368.144 85.9871 367.978 86.479 368.114 86.989C368.239 87.4526 368.529 87.7475 368.985 87.8738C369.464 87.9938 370.059 88.0333 370.768 87.9922C371.478 87.9512 372.242 87.883 373.062 87.7877C373.898 87.663 374.75 87.5963 375.617 87.5875C376.484 87.5788 377.295 87.6845 378.05 87.9047C378.822 88.0954 379.506 88.4711 380.103 89.0315C380.695 89.5688 381.133 90.3707 381.419 91.437C381.729 92.5962 381.658 93.7209 381.205 94.8114C380.746 95.8787 379.923 96.8443 378.739 97.7084C377.577 98.5663 376.058 99.2468 374.18 99.7499ZM394.009 94.4366C391.807 95.0267 389.942 94.93 388.416 94.1465C386.883 93.3398 385.818 91.8237 385.222 89.5982L380.824 73.1852L386.248 71.7317L390.628 88.0751C390.839 88.8633 391.212 89.4217 391.747 89.7504C392.276 90.0559 392.9 90.1123 393.619 89.9198C394.477 89.6899 395.145 89.2624 395.623 88.6373L398.109 92.071C397.658 92.6142 397.066 93.0957 396.334 93.5155C395.619 93.906 394.844 94.213 394.009 94.4366ZM380.276 82.6866L379.158 78.5138L392.129 75.0384L393.247 79.2112L380.276 82.6866ZM410.178 90.1043C408.045 90.6758 406.055 90.7616 404.209 90.3619C402.386 89.9559 400.841 89.1523 399.575 87.9511C398.303 86.7266 397.418 85.1871 396.921 83.3325C396.418 81.4548 396.403 79.6823 396.876 78.0152C397.365 76.3187 398.255 74.8629 399.544 73.6477C400.827 72.4094 402.419 71.5356 404.32 71.0262C406.152 70.5355 407.903 70.4886 409.575 70.8854C411.264 71.2529 412.733 72.0519 413.982 73.2826C415.224 74.4901 416.116 76.1022 416.657 78.1191C416.712 78.3277 416.766 78.5742 416.817 78.8586C416.863 79.1199 416.905 79.3695 416.944 79.6075L401.748 83.6793L400.9 80.5149L413.244 77.2072L411.409 78.7051C411.149 77.7314 410.725 76.9381 410.138 76.325C409.551 75.712 408.858 75.3016 408.056 75.0938C407.249 74.8629 406.382 74.8717 405.455 75.1201C404.527 75.3686 403.76 75.7978 403.153 76.4076C402.564 76.9881 402.171 77.702 401.976 78.5494C401.774 79.3737 401.807 80.2842 402.074 81.2811L402.298 82.1156C402.571 83.1356 403.033 83.9807 403.685 84.6509C404.354 85.2917 405.15 85.712 406.073 85.9119C407.013 86.0824 408.039 86.0185 409.152 85.7204C410.149 85.4533 410.978 85.0696 411.639 84.5695C412.323 84.0631 412.898 83.4247 413.362 82.6543L417.087 85.0105C416.49 86.214 415.614 87.2563 414.459 88.1373C413.297 88.9952 411.87 89.6508 410.178 90.1043ZM429.039 64.4028C430.523 64.0052 431.925 63.9526 433.246 64.2447C434.583 64.5075 435.753 65.1631 436.754 66.2116C437.75 67.237 438.502 68.7001 439.011 70.601L441.881 81.3112L436.457 82.7648L433.81 72.8891C433.407 71.3823 432.772 70.3596 431.907 69.8211C431.066 69.2764 430.042 69.1655 428.837 69.4885C427.979 69.7184 427.252 70.1119 426.656 70.6692C426.077 71.197 425.69 71.8847 425.494 72.7321C425.322 73.5733 425.391 74.5735 425.702 75.7326L428.18 84.9823L422.756 86.4358L417.743 67.7278L422.924 66.3395L424.313 71.5207L422.92 70.2168C423.256 68.7848 423.961 67.565 425.032 66.5573C426.104 65.5496 427.44 64.8314 429.039 64.4028ZM446.798 79.9937L441.786 61.2856L447.21 59.8321L452.223 78.5402L446.798 79.9937ZM443.799 57.9509C442.802 58.218 441.913 58.1456 441.132 57.7338C440.351 57.3219 439.845 56.6871 439.615 55.8294C439.386 54.9716 439.506 54.1691 439.977 53.4219C440.447 52.6746 441.181 52.1674 442.178 51.9003C443.175 51.6332 444.061 51.694 444.836 52.0826C445.604 52.4481 446.104 53.0597 446.333 53.9175C446.576 54.8216 446.465 55.6589 446 56.4293C445.553 57.1704 444.819 57.6776 443.799 57.9509ZM463.541 55.1581C465.025 54.7606 466.427 54.7079 467.747 55C469.085 55.2628 470.255 55.9184 471.256 56.9669C472.251 57.9923 473.004 59.4554 473.513 61.3564L476.383 72.0665L470.958 73.5201L468.312 63.6444C467.908 62.1376 467.274 61.1149 466.409 60.5764C465.567 60.0317 464.544 59.9208 463.338 60.2438C462.481 60.4737 461.754 60.8672 461.158 61.4245C460.579 61.9523 460.191 62.64 459.996 63.4874C459.824 64.3286 459.893 65.3288 460.204 66.4879L462.682 75.7376L457.257 77.1912L452.245 58.4831L457.426 57.0948L458.814 62.276L457.421 60.9721C457.758 59.5401 458.462 58.3203 459.534 57.3126C460.606 56.3049 461.941 55.5867 463.541 55.1581ZM492.116 75.3795C490.354 75.8516 488.591 76.0879 486.827 76.0885C485.092 76.106 483.565 75.8319 482.246 75.2661L483.358 70.7938C484.32 71.2317 485.454 71.4746 486.759 71.5225C488.093 71.5874 489.351 71.4614 490.534 71.1446C492.458 70.6291 493.734 69.8275 494.362 68.7399C495.013 67.6461 495.112 66.2531 494.658 64.5608L493.903 61.7441L492.993 56.9566L491.657 52.246L490.576 48.2123L495.722 46.8333L499.896 62.4118C500.828 65.8891 500.61 68.693 499.243 70.8235C497.876 72.9539 495.5 74.4726 492.116 75.3795ZM489.157 67.6748C487.418 68.1407 485.742 68.1921 484.129 67.8292C482.533 67.4369 481.126 66.6834 479.908 65.5686C478.707 64.4245 477.865 62.9483 477.38 61.1401C476.889 59.3087 476.881 57.6089 477.355 56.0407C477.847 54.4432 478.688 53.0871 479.881 51.9726C481.096 50.8518 482.573 50.0585 484.312 49.5926C485.888 49.1703 487.366 49.1221 488.745 49.4482C490.118 49.7511 491.321 50.4848 492.354 51.6492C493.38 52.7905 494.173 54.4043 494.732 56.4907C495.285 58.5539 495.405 60.3479 495.093 61.8726C494.775 63.3741 494.1 64.6109 493.069 65.583C492.037 66.5551 490.733 67.2524 489.157 67.6748ZM489.042 62.935C489.992 62.6803 490.789 62.2681 491.431 61.6984C492.068 61.1055 492.501 60.4055 492.732 59.5982C492.963 58.7909 492.957 57.9352 492.715 57.0311C492.467 56.1038 492.044 55.3599 491.446 54.7995C490.843 54.2158 490.12 53.8379 489.279 53.6658C488.432 53.4704 487.533 53.5001 486.582 53.7548C485.632 54.0095 484.838 54.4332 484.202 55.0261C483.56 55.5958 483.111 56.2874 482.857 57.1009C482.62 57.885 482.626 58.7407 482.874 59.668C483.117 60.5721 483.539 61.3159 484.143 61.8996C484.77 62.477 485.507 62.8634 486.354 63.0588C487.196 63.2309 488.092 63.1896 489.042 62.935Z" fill="#F97316"/>
<path d="M10.3617 286.488C8.15942 287.078 6.29485 286.982 4.76803 286.198C3.235 285.391 2.17033 283.875 1.57401 281.65L-2.82384 265.237L2.6008 263.783L6.98002 280.127C7.19121 280.915 7.56446 281.473 8.09976 281.802C8.62885 282.107 9.25272 282.164 9.97137 281.971C10.8291 281.741 11.4972 281.314 11.9757 280.689L14.4611 284.123C14.0104 284.666 13.4188 285.147 12.6865 285.567C11.9712 285.958 11.1963 286.265 10.3617 286.488ZM-3.37134 274.738L-4.48944 270.565L8.48101 267.09L9.59911 271.263L-3.37134 274.738ZM21.6556 290.692C20.682 290.953 19.6796 291.06 18.6483 291.014C17.6171 290.967 16.7287 290.758 15.9831 290.386L16.9309 285.995C17.4476 286.254 18.0005 286.417 18.5896 286.482C19.2018 286.542 19.7746 286.5 20.3078 286.357C21.0728 286.153 21.6258 285.806 21.9669 285.317C22.3374 284.845 22.5963 284.142 22.7436 283.208L23.1023 280.652L23.3611 279.949L25.7491 262.016L30.9651 260.618L27.8354 282.738C27.6365 284.406 27.2578 285.775 26.6994 286.844C26.1642 287.907 25.468 288.739 24.6107 289.341C23.7766 289.938 22.7916 290.388 21.6556 290.692ZM23.1683 283.541L9.61425 266.339L15.2128 264.839L25.8735 278.754L23.1683 283.541ZM49.3239 276.048C47.7475 276.471 46.275 276.493 44.9063 276.114C43.5377 275.735 42.3278 274.929 41.2766 273.695C40.2423 272.432 39.4333 270.71 38.8494 268.531C38.2593 266.329 38.0877 264.437 38.3347 262.855C38.5818 261.273 39.2032 259.976 40.1992 258.964C41.1951 257.952 42.5161 257.225 44.162 256.784C45.9238 256.312 47.6089 256.295 49.2173 256.734C50.8426 257.143 52.2535 257.958 53.45 259.178C54.6697 260.391 55.5404 261.972 56.0622 263.919C56.5902 265.889 56.6295 267.705 56.18 269.366C55.7538 271.021 54.9392 272.432 53.7363 273.599C52.5565 274.76 51.0857 275.576 49.3239 276.048ZM39.999 285.479L33.1786 260.025L38.3598 258.637L39.3848 262.462L40.7712 268.053L42.6005 273.489L45.4237 284.026L39.999 285.479ZM47.1924 271.849C48.0965 271.607 48.8404 271.184 49.424 270.58C50.0308 269.97 50.4404 269.227 50.6527 268.35C50.882 267.444 50.8537 266.458 50.568 265.391C50.2761 264.302 49.8074 263.433 49.1619 262.786C48.5396 262.133 47.8133 261.694 46.9828 261.469C46.1756 261.239 45.3199 261.244 44.4158 261.486C43.5116 261.729 42.7562 262.155 42.1493 262.765C41.5425 263.374 41.1329 264.118 40.9206 264.995C40.7083 265.871 40.7482 266.855 41.0401 267.944C41.3258 269.011 41.783 269.882 42.4114 270.558C43.0337 271.212 43.7601 271.65 44.5905 271.875C45.421 272.1 46.2883 272.091 47.1924 271.849ZM62.2 272.3L57.1872 253.592L62.6118 252.138L67.6246 270.846L62.2 272.3ZM59.2007 250.257C58.2038 250.524 57.3148 250.452 56.5336 250.04C55.7524 249.628 55.2469 248.993 55.017 248.136C54.7872 247.278 54.9076 246.475 55.3782 245.728C55.8489 244.981 56.5826 244.474 57.5794 244.207C58.5763 243.94 59.4622 244 60.2372 244.389C61.006 244.754 61.5053 245.366 61.7351 246.224C61.9774 247.128 61.8663 247.965 61.4019 248.736C60.9544 249.477 60.2207 249.984 59.2007 250.257ZM78.9427 247.464C80.4263 247.067 81.8285 247.014 83.1491 247.306C84.4867 247.569 85.6562 248.225 86.6577 249.273C87.653 250.299 88.4053 251.762 88.9147 253.663L91.7845 264.373L86.3598 265.826L83.7137 255.951C83.3099 254.444 82.6756 253.421 81.8107 252.883C80.9691 252.338 79.9455 252.227 78.74 252.55C77.8823 252.78 77.1554 253.174 76.5593 253.731C75.9802 254.259 75.593 254.946 75.3977 255.794C75.2255 256.635 75.2947 257.635 75.6053 258.794L78.0838 268.044L72.6591 269.497L67.6463 250.789L72.8275 249.401L74.2159 254.582L72.8229 253.278C73.1598 251.846 73.864 250.627 74.9357 249.619C76.0074 248.611 77.3431 247.893 78.9427 247.464ZM107.517 267.686C105.755 268.158 103.992 268.394 102.229 268.395C100.494 268.412 98.967 268.138 97.6476 267.572L98.76 263.1C99.7221 263.538 100.856 263.781 102.16 263.829C103.495 263.894 104.753 263.768 105.935 263.451C107.859 262.935 109.135 262.134 109.763 261.046C110.414 259.952 110.513 258.559 110.06 256.867L109.305 254.05L108.395 249.263L107.058 244.552L105.977 240.519L111.124 239.14L115.298 254.718C116.23 258.195 116.012 260.999 114.645 263.13C113.278 265.26 110.902 266.779 107.517 267.686ZM104.558 259.981C102.82 260.447 101.144 260.498 99.531 260.136C97.935 259.743 96.5281 258.99 95.3101 257.875C94.109 256.731 93.2662 255.255 92.7817 253.446C92.291 251.615 92.2828 249.915 92.7571 248.347C93.2483 246.749 94.09 245.393 95.2822 244.279C96.4975 243.158 97.9745 242.365 99.7132 241.899C101.29 241.477 102.767 241.428 104.147 241.755C105.52 242.057 106.723 242.791 107.756 243.956C108.782 245.097 109.575 246.711 110.134 248.797C110.686 250.86 110.807 252.654 110.495 254.179C110.177 255.68 109.502 256.917 108.47 257.889C107.439 258.861 106.135 259.559 104.558 259.981ZM104.444 255.241C105.394 254.987 106.191 254.574 106.833 254.005C107.469 253.412 107.903 252.712 108.134 251.905C108.365 251.097 108.359 250.242 108.117 249.337C107.868 248.41 107.445 247.666 106.848 247.106C106.244 246.522 105.522 246.144 104.681 245.972C103.833 245.777 102.934 245.806 101.984 246.061C101.033 246.316 100.24 246.74 99.6038 247.332C98.9613 247.902 98.513 248.594 98.2589 249.407C98.0218 250.191 98.0274 251.047 98.2759 251.974C98.5182 252.878 98.9411 253.622 99.5447 254.206C100.172 254.783 100.909 255.17 101.756 255.365C102.597 255.537 103.493 255.496 104.444 255.241Z" fill="#F97316"/>
<path d="M186.44 184.451C184.712 177.998 176.041 176.859 172.705 182.644L156.795 210.201L147.464 212.701C141.953 214.178 137.128 218.908 137.083 225.344C137.056 229.727 137.62 234.094 138.76 238.327C139.922 242.664 141.632 246.709 143.809 250.407C147.06 255.955 153.605 257.643 159.116 256.167L168.437 253.669L195.994 269.579C201.781 272.92 208.72 267.598 206.991 261.145L186.44 184.451ZM212.348 182.923C212.845 182.063 213.664 181.435 214.624 181.178C215.584 180.921 216.606 181.055 217.467 181.552C240.785 195.01 248.774 224.823 235.31 248.143C235.074 248.587 234.751 248.98 234.359 249.297C233.968 249.614 233.517 249.849 233.033 249.988C232.549 250.127 232.042 250.167 231.542 250.105C231.042 250.044 230.56 249.883 230.124 249.631C229.687 249.379 229.306 249.042 229.003 248.64C228.7 248.238 228.482 247.779 228.36 247.29C228.238 246.801 228.216 246.293 228.295 245.796C228.374 245.298 228.552 244.822 228.819 244.395C231.528 239.703 233.287 234.524 233.994 229.153C234.701 223.782 234.343 218.324 232.941 213.091C231.539 207.859 229.12 202.953 225.822 198.655C222.524 194.357 218.411 190.751 213.72 188.043C212.859 187.545 212.232 186.727 211.974 185.767C211.717 184.807 211.852 183.784 212.348 182.923Z" fill="#FED7AA"/>
<path d="M202.97 199.159C203.217 198.732 203.544 198.358 203.935 198.058C204.326 197.758 204.772 197.538 205.248 197.41C205.724 197.283 206.22 197.25 206.709 197.315C207.197 197.379 207.668 197.539 208.095 197.786C211.507 199.755 214.498 202.378 216.897 205.504C219.295 208.63 221.055 212.197 222.075 216.003C223.094 219.809 223.354 223.778 222.84 227.685C222.326 231.591 221.047 235.358 219.076 238.77C218.57 239.612 217.752 240.222 216.8 240.468C215.848 240.714 214.837 240.576 213.986 240.084C213.135 239.592 212.511 238.785 212.249 237.837C211.986 236.89 212.107 235.877 212.584 235.017C214.061 232.458 215.02 229.634 215.406 226.704C215.792 223.775 215.596 220.798 214.832 217.944C214.067 215.09 212.747 212.414 210.949 210.07C209.15 207.726 206.907 205.759 204.348 204.282C203.488 203.784 202.86 202.966 202.603 202.006C202.346 201.046 202.48 200.023 202.976 199.162L202.97 199.159Z" fill="#FED7AA"/>
<path d="M269.233 216.826L262.319 191.024L267.744 189.57L274.657 215.372L269.233 216.826ZM279.692 214.023L274.679 195.315L280.104 193.862L285.117 212.57L279.692 214.023ZM276.693 191.98C275.696 192.248 274.807 192.175 274.026 191.763C273.244 191.351 272.739 190.717 272.509 189.859C272.279 189.001 272.4 188.199 272.87 187.451C273.341 186.704 274.075 186.197 275.071 185.93C276.068 185.663 276.954 185.724 277.729 186.112C278.498 186.478 278.997 187.089 279.227 187.947C279.469 188.851 279.358 189.688 278.894 190.459C278.446 191.2 277.713 191.707 276.693 191.98ZM296.52 209.812C294.92 210.241 293.329 210.469 291.746 210.495C290.18 210.493 288.89 210.316 287.877 209.967L288.642 205.587C289.642 205.891 290.769 206.061 292.021 206.098C293.29 206.106 294.493 205.958 295.629 205.653C296.881 205.318 297.721 204.931 298.15 204.493C298.603 204.049 298.758 203.56 298.615 203.027C298.497 202.586 298.201 202.318 297.728 202.221C297.272 202.095 296.692 202.064 295.989 202.128C295.285 202.192 294.512 202.275 293.67 202.377C292.851 202.472 292.011 202.535 291.149 202.567C290.282 202.576 289.46 202.474 288.682 202.26C287.904 202.046 287.216 201.658 286.619 201.098C286.045 200.531 285.615 199.715 285.329 198.648C285.012 197.466 285.069 196.333 285.499 195.249C285.952 194.158 286.759 193.184 287.921 192.326C289.076 191.445 290.558 190.762 292.366 190.278C293.641 189.936 294.977 189.727 296.373 189.652C297.768 189.576 298.978 189.686 300.002 189.983L299.228 194.328C298.181 194.037 297.169 193.923 296.192 193.986C295.232 194.019 294.323 194.151 293.466 194.381C292.26 194.704 291.423 195.102 290.953 195.576C290.484 196.05 290.317 196.541 290.454 197.051C290.578 197.515 290.869 197.81 291.325 197.936C291.804 198.056 292.399 198.096 293.108 198.055C293.818 198.014 294.582 197.946 295.401 197.85C296.238 197.726 297.089 197.659 297.957 197.65C298.824 197.641 299.635 197.747 300.39 197.967C301.161 198.158 301.846 198.534 302.443 199.094C303.035 199.631 303.473 200.433 303.759 201.5C304.069 202.659 303.998 203.783 303.545 204.874C303.085 205.941 302.263 206.907 301.079 207.771C299.917 208.629 298.397 209.309 296.52 209.812ZM316.349 204.499C314.147 205.089 312.282 204.993 310.755 204.209C309.222 203.402 308.158 201.886 307.561 199.661L303.164 183.248L308.588 181.794L312.967 198.138C313.179 198.926 313.552 199.484 314.087 199.813C314.616 200.118 315.24 200.175 315.959 199.982C316.816 199.752 317.485 199.325 317.963 198.7L320.449 202.134C319.998 202.677 319.406 203.158 318.674 203.578C317.959 203.968 317.184 204.276 316.349 204.499ZM302.616 192.749L301.498 188.576L314.468 185.101L315.586 189.274L302.616 192.749ZM332.518 200.167C330.385 200.738 328.395 200.824 326.549 200.424C324.726 200.018 323.181 199.215 321.915 198.014C320.643 196.789 319.758 195.25 319.261 193.395C318.758 191.517 318.743 189.745 319.215 188.078C319.705 186.381 320.595 184.925 321.884 183.71C323.167 182.472 324.759 181.598 326.66 181.089C328.492 180.598 330.243 180.551 331.915 180.948C333.604 181.315 335.072 182.114 336.321 183.345C337.564 184.553 338.456 186.165 338.996 188.182C339.052 188.39 339.106 188.637 339.157 188.921C339.202 189.182 339.244 189.432 339.283 189.67L324.087 193.742L323.24 190.577L335.584 187.27L333.749 188.768C333.488 187.794 333.065 187.001 332.478 186.388C331.891 185.774 331.197 185.364 330.396 185.156C329.589 184.925 328.722 184.934 327.794 185.183C326.867 185.431 326.1 185.86 325.493 186.47C324.903 187.051 324.511 187.764 324.316 188.612C324.114 189.436 324.147 190.347 324.414 191.344L324.637 192.178C324.911 193.198 325.373 194.043 326.025 194.713C326.694 195.354 327.489 195.775 328.413 195.974C329.353 196.145 330.379 196.081 331.492 195.783C332.489 195.516 333.318 195.132 333.979 194.632C334.663 194.126 335.237 193.487 335.702 192.717L339.427 195.073C338.83 196.277 337.954 197.319 336.798 198.2C335.637 199.058 334.21 199.713 332.518 200.167ZM351.379 174.465C352.863 174.068 354.265 174.015 355.586 174.307C356.923 174.57 358.093 175.226 359.094 176.274C360.09 177.299 360.842 178.763 361.351 180.664L364.221 191.374L358.796 192.827L356.15 182.952C355.746 181.445 355.112 180.422 354.247 179.884C353.406 179.339 352.382 179.228 351.177 179.551C350.319 179.781 349.592 180.174 348.996 180.732C348.417 181.26 348.03 181.947 347.834 182.795C347.662 183.636 347.731 184.636 348.042 185.795L350.52 195.045L345.096 196.498L340.083 177.79L345.264 176.402L346.652 181.583L345.259 180.279C345.596 178.847 346.301 177.627 347.372 176.62C348.444 175.612 349.78 174.894 351.379 174.465ZM369.138 190.056L364.125 171.348L369.55 169.895L374.563 188.603L369.138 190.056ZM366.139 168.013C365.142 168.28 364.253 168.208 363.472 167.796C362.691 167.384 362.185 166.75 361.955 165.892C361.725 165.034 361.846 164.232 362.316 163.484C362.787 162.737 363.521 162.23 364.518 161.963C365.514 161.696 366.4 161.756 367.175 162.145C367.944 162.511 368.443 163.122 368.673 163.98C368.916 164.884 368.804 165.721 368.34 166.492C367.893 167.233 367.159 167.74 366.139 168.013ZM385.881 165.221C387.365 164.823 388.767 164.77 390.087 165.063C391.425 165.325 392.594 165.981 393.596 167.029C394.591 168.055 395.344 169.518 395.853 171.419L398.723 182.129L393.298 183.583L390.652 173.707C390.248 172.2 389.614 171.177 388.749 170.639C387.907 170.094 386.884 169.983 385.678 170.306C384.82 170.536 384.094 170.93 383.498 171.487C382.918 172.015 382.531 172.702 382.336 173.55C382.164 174.391 382.233 175.391 382.544 176.55L385.022 185.8L379.597 187.254L374.585 168.546L379.766 167.157L381.154 172.339L379.761 171.035C380.098 169.603 380.802 168.383 381.874 167.375C382.946 166.367 384.281 165.649 385.881 165.221ZM414.455 185.442C412.694 185.914 410.931 186.15 409.167 186.151C407.432 186.168 405.905 185.894 404.586 185.329L405.698 180.856C406.66 181.294 407.794 181.537 409.099 181.585C410.433 181.65 411.691 181.524 412.873 181.207C414.798 180.692 416.074 179.89 416.702 178.802C417.353 177.709 417.451 176.316 416.998 174.623L416.243 171.807L415.333 167.019L413.996 162.309L412.916 158.275L418.062 156.896L422.236 172.474C423.168 175.952 422.95 178.756 421.583 180.886C420.216 183.016 417.84 184.535 414.455 185.442ZM411.496 177.737C409.758 178.203 408.082 178.255 406.469 177.892C404.873 177.499 403.466 176.746 402.248 175.631C401.047 174.487 400.204 173.011 399.72 171.203C399.229 169.371 399.221 167.671 399.695 166.103C400.187 164.506 401.028 163.15 402.22 162.035C403.436 160.914 404.913 160.121 406.651 159.655C408.228 159.233 409.706 159.185 411.085 159.511C412.458 159.814 413.661 160.547 414.694 161.712C415.72 162.853 416.513 164.467 417.072 166.553C417.625 168.616 417.745 170.41 417.433 171.935C417.115 173.437 416.44 174.673 415.408 175.646C414.377 176.618 413.073 177.315 411.496 177.737ZM411.382 172.997C412.332 172.743 413.129 172.331 413.771 171.761C414.407 171.168 414.841 170.468 415.072 169.661C415.303 168.853 415.297 167.998 415.055 167.094C414.806 166.166 414.384 165.422 413.786 164.862C413.183 164.278 412.46 163.9 411.619 163.728C410.771 163.533 409.872 163.563 408.922 163.817C407.972 164.072 407.178 164.496 406.542 165.089C405.9 165.658 405.451 166.35 405.197 167.163C404.96 167.947 404.966 168.803 405.214 169.73C405.456 170.635 405.879 171.378 406.483 171.962C407.11 172.54 407.847 172.926 408.694 173.121C409.536 173.293 410.431 173.252 411.382 172.997Z" fill="#F97316"/>
<path d="M-67.2984 396.55C-69.5007 397.141 -71.3653 397.044 -72.8921 396.26C-74.4252 395.454 -75.4898 393.937 -76.0861 391.712L-80.484 375.299L-75.0594 373.845L-70.6801 390.189C-70.4689 390.977 -70.0957 391.536 -69.5604 391.864C-69.0313 392.17 -68.4074 392.226 -67.6888 392.034C-66.831 391.804 -66.1629 391.376 -65.6844 390.751L-63.199 394.185C-63.6498 394.728 -64.2413 395.21 -64.9736 395.629C-65.6889 396.02 -66.4639 396.327 -67.2984 396.55ZM-81.0315 384.8L-82.1496 380.628L-69.1791 377.152L-68.061 381.325L-81.0315 384.8ZM-56.0045 400.755C-56.9782 401.015 -57.9806 401.123 -59.0118 401.076C-60.043 401.029 -60.9315 400.82 -61.6771 400.448L-60.7292 396.057C-60.2126 396.317 -59.6597 396.479 -59.0706 396.545C-58.4583 396.604 -57.8856 396.563 -57.3524 396.42C-56.5874 396.215 -56.0343 395.868 -55.6932 395.379C-55.3228 394.907 -55.0639 394.204 -54.9166 393.27L-54.5579 390.714L-54.299 390.011L-51.9111 372.078L-46.6951 370.68L-49.8247 392.8C-50.0237 394.468 -50.4024 395.837 -50.9607 396.906C-51.4959 397.969 -52.1922 398.801 -53.0494 399.404C-53.8836 400 -54.8686 400.45 -56.0045 400.755ZM-54.4918 393.603L-68.0459 376.401L-62.4474 374.901L-51.7867 388.816L-54.4918 393.603ZM-28.3363 386.111C-29.9127 386.533 -31.3852 386.555 -32.7538 386.176C-34.1225 385.797 -35.3324 384.991 -36.3836 383.757C-37.4178 382.494 -38.2269 380.773 -38.8108 378.593C-39.4009 376.391 -39.5724 374.499 -39.3254 372.917C-39.0784 371.335 -38.4569 370.038 -37.461 369.026C-36.465 368.014 -35.1441 367.287 -33.4982 366.846C-31.7363 366.374 -30.0512 366.357 -28.4429 366.796C-26.8176 367.205 -25.4067 368.02 -24.2102 369.24C-22.9905 370.453 -22.1197 372.034 -21.598 373.981C-21.07 375.952 -21.0307 377.767 -21.4801 379.428C-21.9064 381.083 -22.721 382.494 -23.9239 383.661C-25.1036 384.822 -26.5744 385.638 -28.3363 386.111ZM-37.6611 395.541L-44.4815 370.087L-39.3003 368.699L-38.2754 372.524L-36.8889 378.116L-35.0597 383.552L-32.2365 394.088L-37.6611 395.541ZM-30.4678 381.911C-29.5637 381.669 -28.8198 381.246 -28.2361 380.642C-27.6293 380.032 -27.2197 379.289 -27.0074 378.412C-26.7782 377.506 -26.8064 376.52 -27.0922 375.453C-27.3841 374.364 -27.8528 373.496 -28.4982 372.849C-29.1205 372.195 -29.8469 371.756 -30.6773 371.532C-31.4846 371.301 -32.3403 371.306 -33.2444 371.549C-34.1485 371.791 -34.904 372.217 -35.5108 372.827C-36.1177 373.437 -36.5272 374.18 -36.7395 375.057C-36.9518 375.934 -36.912 376.917 -36.62 378.006C-36.3343 379.073 -35.8772 379.944 -35.2487 380.621C-34.6265 381.274 -33.9001 381.713 -33.0696 381.937C-32.2392 382.162 -31.3719 382.153 -30.4678 381.911ZM-15.4602 382.362L-20.473 363.654L-15.0484 362.201L-10.0356 380.909L-15.4602 382.362ZM-18.4595 360.319C-19.4563 360.587 -20.3454 360.514 -21.1266 360.102C-21.9078 359.69 -22.4133 359.056 -22.6431 358.198C-22.873 357.34 -22.7526 356.538 -22.2819 355.79C-21.8113 355.043 -21.0776 354.536 -20.0807 354.269C-19.0839 354.002 -18.198 354.063 -17.423 354.451C-16.6542 354.817 -16.1549 355.428 -15.9251 356.286C-15.6828 357.19 -15.7939 358.027 -16.2583 358.798C-16.7057 359.539 -17.4395 360.046 -18.4595 360.319ZM1.2825 357.527C2.76617 357.129 4.1683 357.076 5.48892 357.369C6.8265 357.631 7.99605 358.287 8.99755 359.336C9.99284 360.361 10.7452 361.824 11.2545 363.725L14.1243 374.435L8.69966 375.889L6.0535 366.013C5.64974 364.506 5.01544 363.483 4.15059 362.945C3.30893 362.4 2.28536 362.289 1.07989 362.612C0.222143 362.842 -0.504768 363.236 -1.10085 363.793C-1.67996 364.321 -2.06718 365.009 -2.2625 365.856C-2.43464 366.697 -2.36542 367.697 -2.05484 368.856L0.423612 378.106L-5.00103 379.56L-10.0138 360.852L-4.83261 359.463L-3.4443 364.645L-4.83724 363.341C-4.50039 361.909 -3.79611 360.689 -2.72441 359.681C-1.65271 358.673 -0.317069 357.955 1.2825 357.527ZM29.8571 377.748C28.0952 378.22 26.3323 378.456 24.5684 378.457C22.8338 378.475 21.3068 378.2 19.9874 377.635L21.0998 373.162C22.0619 373.6 23.1954 373.843 24.5003 373.891C25.8346 373.956 27.0928 373.83 28.2751 373.513C30.1992 372.998 31.4753 372.196 32.1032 371.108C32.7543 370.015 32.8531 368.622 32.3996 366.929L31.6449 364.113L30.7348 359.325L29.3981 354.615L28.3172 350.581L33.4637 349.202L37.6379 364.78C38.5697 368.258 38.352 371.062 36.9848 373.192C35.6176 375.322 33.2417 376.841 29.8571 377.748ZM26.8981 370.043C25.1595 370.509 23.4837 370.561 21.8708 370.198C20.2749 369.805 18.8679 369.052 17.6499 367.937C16.4489 366.793 15.6061 365.317 15.1216 363.509C14.6308 361.677 14.6226 359.978 15.0969 358.409C15.5882 356.812 16.4299 355.456 17.622 354.341C18.8374 353.22 20.3144 352.427 22.053 351.961C23.6294 351.539 25.1073 351.491 26.4867 351.817C27.8599 352.12 29.0628 352.853 30.0954 354.018C31.1217 355.159 31.9144 356.773 32.4735 358.859C33.0263 360.922 33.1467 362.716 32.8347 364.241C32.5165 365.743 31.8416 366.979 30.8101 367.952C29.7785 368.924 28.4745 369.621 26.8981 370.043ZM26.7835 365.304C27.7339 365.049 28.5304 364.637 29.1728 364.067C29.8091 363.474 30.2427 362.774 30.4736 361.967C30.7045 361.159 30.6989 360.304 30.4566 359.4C30.2081 358.472 29.7852 357.729 29.1878 357.168C28.5842 356.584 27.8617 356.206 27.0205 356.034C26.1731 355.839 25.2741 355.869 24.3237 356.123C23.3732 356.378 22.5798 356.802 21.9436 357.395C21.3012 357.964 20.8529 358.656 20.5988 359.469C20.3616 360.254 20.3673 361.109 20.6158 362.037C20.858 362.941 21.281 363.685 21.8846 364.268C22.5114 364.846 23.2485 365.232 24.0959 365.427C24.9372 365.599 25.833 365.558 26.7835 365.304Z" fill="#F97316"/>
<path d="M66.9681 360.276L60.0545 334.474L65.4792 333.02L72.3927 358.822L66.9681 360.276ZM77.4273 357.473L72.4145 338.765L77.8391 337.312L82.8519 356.02L77.4273 357.473ZM74.428 335.43C73.4311 335.697 72.5421 335.625 71.7609 335.213C70.9797 334.801 70.4742 334.167 70.2443 333.309C70.0145 332.451 70.1349 331.649 70.6055 330.901C71.0762 330.154 71.8099 329.647 72.8067 329.38C73.8036 329.113 74.6895 329.173 75.4645 329.562C76.2333 329.928 76.7326 330.539 76.9624 331.397C77.2047 332.301 77.0936 333.138 76.6292 333.909C76.1817 334.65 75.448 335.157 74.428 335.43ZM94.255 353.262C92.6554 353.691 91.0641 353.919 89.481 353.945C87.9149 353.942 86.6254 353.766 85.6124 353.416L86.377 349.037C87.3776 349.341 88.5041 349.511 89.7564 349.548C91.0256 349.556 92.2282 349.408 93.3641 349.103C94.616 348.768 95.4565 348.381 95.8858 347.943C96.3382 347.499 96.493 347.01 96.3501 346.477C96.2321 346.036 95.9365 345.768 95.4633 345.671C95.0071 345.545 94.4273 345.514 93.724 345.578C93.0206 345.642 92.2478 345.725 91.4053 345.827C90.5861 345.922 89.7459 345.985 88.8848 346.017C88.0175 346.026 87.195 345.924 86.4171 345.71C85.6392 345.496 84.9516 345.108 84.3541 344.548C83.7799 343.981 83.3499 343.165 83.0642 342.098C82.7474 340.916 82.804 339.783 83.234 338.699C83.6872 337.608 84.4946 336.634 85.6562 335.776C86.8115 334.895 88.2933 334.212 90.1015 333.728C91.3765 333.386 92.712 333.177 94.1079 333.101C95.5038 333.026 96.7137 333.136 97.7375 333.433L96.9635 337.778C95.9165 337.487 94.9046 337.373 93.9276 337.436C92.9676 337.469 92.0587 337.601 91.201 337.831C89.9955 338.154 89.158 338.552 88.6886 339.026C88.2192 339.5 88.0528 339.991 88.1895 340.501C88.3137 340.965 88.604 341.26 89.0602 341.386C89.5396 341.506 90.134 341.546 90.8436 341.505C91.5531 341.464 92.3176 341.395 93.1368 341.3C93.973 341.175 94.8248 341.109 95.6921 341.1C96.5593 341.091 97.3703 341.197 98.125 341.417C98.8967 341.608 99.5813 341.984 100.179 342.544C100.77 343.081 101.208 343.883 101.494 344.949C101.805 346.109 101.733 347.233 101.28 348.324C100.821 349.391 99.9986 350.357 98.8139 351.221C97.6524 352.079 96.1327 352.759 94.255 353.262ZM114.084 347.949C111.882 348.539 110.018 348.442 108.491 347.659C106.958 346.852 105.893 345.336 105.297 343.111L100.899 326.698L106.324 325.244L110.703 341.588C110.914 342.376 111.287 342.934 111.822 343.263C112.352 343.568 112.975 343.625 113.694 343.432C114.552 343.202 115.22 342.775 115.698 342.15L118.184 345.583C117.733 346.127 117.142 346.608 116.409 347.028C115.694 347.418 114.919 347.725 114.084 347.949ZM100.351 336.199L99.2333 332.026L112.204 328.551L113.322 332.724L100.351 336.199ZM130.253 343.617C128.12 344.188 126.131 344.274 124.284 343.874C122.461 343.468 120.916 342.665 119.65 341.464C118.378 340.239 117.494 338.7 116.997 336.845C116.493 334.967 116.478 333.195 116.951 331.528C117.44 329.831 118.33 328.375 119.619 327.16C120.903 325.922 122.495 325.048 124.396 324.539C126.227 324.048 127.979 324.001 129.65 324.398C131.339 324.765 132.808 325.564 134.057 326.795C135.3 328.003 136.191 329.615 136.732 331.632C136.788 331.84 136.841 332.087 136.893 332.371C136.938 332.632 136.98 332.882 137.019 333.12L121.823 337.192L120.975 334.027L133.319 330.72L131.485 332.218C131.224 331.244 130.8 330.451 130.213 329.837C129.627 329.224 128.933 328.814 128.132 328.606C127.324 328.375 126.457 328.384 125.53 328.633C124.603 328.881 123.835 329.31 123.229 329.92C122.639 330.501 122.246 331.214 122.051 332.062C121.849 332.886 121.882 333.797 122.149 334.794L122.373 335.628C122.646 336.648 123.109 337.493 123.76 338.163C124.429 338.804 125.225 339.224 126.148 339.424C127.088 339.595 128.115 339.531 129.227 339.233C130.224 338.966 131.053 338.582 131.714 338.082C132.398 337.576 132.973 336.937 133.437 336.167L137.162 338.523C136.565 339.726 135.689 340.769 134.534 341.65C133.372 342.508 131.945 343.163 130.253 343.617ZM149.115 317.915C150.598 317.518 152 317.465 153.321 317.757C154.659 318.02 155.828 318.676 156.83 319.724C157.825 320.749 158.577 322.213 159.087 324.113L161.956 334.824L156.532 336.277L153.886 326.402C153.482 324.895 152.847 323.872 151.983 323.334C151.141 322.789 150.117 322.678 148.912 323.001C148.054 323.231 147.327 323.624 146.731 324.182C146.152 324.709 145.765 325.397 145.57 326.245C145.397 327.086 145.467 328.086 145.777 329.245L148.256 338.495L142.831 339.948L137.818 321.24L142.999 319.852L144.388 325.033L142.995 323.729C143.332 322.297 144.036 321.077 145.108 320.07C146.179 319.062 147.515 318.344 149.115 317.915ZM166.874 333.506L161.861 314.798L167.285 313.345L172.298 332.053L166.874 333.506ZM163.874 311.463C162.877 311.73 161.988 311.658 161.207 311.246C160.426 310.834 159.92 310.2 159.691 309.342C159.461 308.484 159.581 307.682 160.052 306.934C160.522 306.187 161.256 305.68 162.253 305.413C163.25 305.146 164.136 305.206 164.911 305.595C165.68 305.961 166.179 306.572 166.409 307.43C166.651 308.334 166.54 309.171 166.075 309.942C165.628 310.683 164.894 311.19 163.874 311.463ZM183.616 308.671C185.1 308.273 186.502 308.22 187.823 308.512C189.16 308.775 190.33 309.431 191.331 310.479C192.327 311.505 193.079 312.968 193.588 314.869L196.458 325.579L191.033 327.033L188.387 317.157C187.983 315.65 187.349 314.627 186.484 314.089C185.643 313.544 184.619 313.433 183.414 313.756C182.556 313.986 181.829 314.38 181.233 314.937C180.654 315.465 180.267 316.152 180.071 317C179.899 317.841 179.968 318.841 180.279 320L182.757 329.25L177.333 330.704L172.32 311.996L177.501 310.607L178.889 315.788L177.496 314.485C177.833 313.053 178.538 311.833 179.609 310.825C180.681 309.817 182.017 309.099 183.616 308.671ZM212.191 328.892C210.429 329.364 208.666 329.6 206.902 329.601C205.168 329.618 203.641 329.344 202.321 328.779L203.434 324.306C204.396 324.744 205.529 324.987 206.834 325.035C208.168 325.1 209.427 324.974 210.609 324.657C212.533 324.142 213.809 323.34 214.437 322.252C215.088 321.159 215.187 319.766 214.733 318.073L213.979 315.257L213.069 310.469L211.732 305.758L210.651 301.725L215.797 300.346L219.972 315.924C220.903 319.402 220.686 322.205 219.318 324.336C217.951 326.466 215.575 327.985 212.191 328.892ZM209.232 321.187C207.493 321.653 205.817 321.705 204.205 321.342C202.609 320.949 201.202 320.196 199.984 319.081C198.783 317.937 197.94 316.461 197.455 314.653C196.965 312.821 196.956 311.121 197.431 309.553C197.922 307.956 198.764 306.6 199.956 305.485C201.171 304.364 202.648 303.571 204.387 303.105C205.963 302.683 207.441 302.635 208.82 302.961C210.194 303.264 211.397 303.997 212.429 305.162C213.455 306.303 214.248 307.917 214.807 310.003C215.36 312.066 215.48 313.86 215.168 315.385C214.85 316.887 214.175 318.123 213.144 319.095C212.112 320.068 210.808 320.765 209.232 321.187ZM209.117 316.447C210.068 316.193 210.864 315.781 211.507 315.211C212.143 314.618 212.576 313.918 212.807 313.111C213.038 312.303 213.033 311.448 212.79 310.544C212.542 309.616 212.119 308.872 211.521 308.312C210.918 307.728 210.195 307.35 209.354 307.178C208.507 306.983 207.608 307.013 206.657 307.267C205.707 307.522 204.914 307.946 204.277 308.539C203.635 309.108 203.187 309.8 202.932 310.613C202.695 311.397 202.701 312.253 202.949 313.18C203.192 314.085 203.615 314.828 204.218 315.412C204.845 315.989 205.582 316.376 206.43 316.571C207.271 316.743 208.167 316.702 209.117 316.447Z" fill="#F97316"/>
<path d="M257.253 309.587C255.05 310.177 253.186 310.081 251.659 309.297C250.126 308.49 249.061 306.974 248.465 304.749L244.067 288.336L249.492 286.882L253.871 303.226C254.082 304.014 254.455 304.572 254.991 304.901C255.52 305.207 256.144 305.263 256.862 305.07C257.72 304.841 258.388 304.413 258.867 303.788L261.352 307.222C260.901 307.765 260.31 308.246 259.577 308.666C258.862 309.057 258.087 309.364 257.253 309.587ZM243.52 297.837L242.401 293.665L255.372 290.189L256.49 294.362L243.52 297.837ZM268.547 313.791C267.573 314.052 266.57 314.159 265.539 314.113C264.508 314.066 263.62 313.857 262.874 313.485L263.822 309.094C264.338 309.353 264.891 309.516 265.48 309.582C266.093 309.641 266.665 309.599 267.199 309.457C267.964 309.252 268.517 308.905 268.858 308.416C269.228 307.944 269.487 307.241 269.634 306.307L269.993 303.751L270.252 303.048L272.64 285.115L277.856 283.717L274.726 305.837C274.527 307.505 274.149 308.874 273.59 309.943C273.055 311.006 272.359 311.838 271.502 312.441C270.667 313.037 269.682 313.487 268.547 313.791ZM270.059 306.64L256.505 289.438L262.104 287.938L272.764 301.853L270.059 306.64ZM296.215 299.147C294.638 299.57 293.166 299.592 291.797 299.213C290.429 298.834 289.219 298.028 288.167 296.794C287.133 295.531 286.324 293.809 285.74 291.63C285.15 289.428 284.979 287.536 285.226 285.954C285.473 284.372 286.094 283.075 287.09 282.063C288.086 281.051 289.407 280.324 291.053 279.883C292.815 279.411 294.5 279.394 296.108 279.833C297.733 280.242 299.144 281.057 300.341 282.277C301.561 283.49 302.431 285.071 302.953 287.018C303.481 288.989 303.52 290.804 303.071 292.465C302.645 294.12 301.83 295.531 300.627 296.698C299.447 297.859 297.977 298.675 296.215 299.147ZM286.89 308.578L280.069 283.124L285.251 281.736L286.276 285.561L287.662 291.153L289.491 296.588L292.315 307.125L286.89 308.578ZM294.083 294.948C294.987 294.706 295.731 294.283 296.315 293.679C296.922 293.069 297.331 292.326 297.544 291.449C297.773 290.543 297.745 289.557 297.459 288.49C297.167 287.401 296.698 286.532 296.053 285.885C295.431 285.232 294.704 284.793 293.874 284.569C293.066 284.338 292.211 284.343 291.307 284.586C290.403 284.828 289.647 285.254 289.04 285.864C288.433 286.474 288.024 287.217 287.812 288.094C287.599 288.971 287.639 289.954 287.931 291.043C288.217 292.11 288.674 292.981 289.302 293.657C289.925 294.311 290.651 294.75 291.481 294.974C292.312 295.199 293.179 295.19 294.083 294.948ZM309.091 295.399L304.078 276.691L309.503 275.238L314.515 293.946L309.091 295.399ZM306.092 273.356C305.095 273.623 304.206 273.551 303.424 273.139C302.643 272.727 302.138 272.093 301.908 271.235C301.678 270.377 301.798 269.575 302.269 268.827C302.74 268.08 303.473 267.573 304.47 267.306C305.467 267.039 306.353 267.099 307.128 267.488C307.897 267.854 308.396 268.465 308.626 269.323C308.868 270.227 308.757 271.064 308.293 271.835C307.845 272.576 307.112 273.083 306.092 273.356ZM325.834 270.564C327.317 270.166 328.719 270.113 330.04 270.405C331.378 270.668 332.547 271.324 333.549 272.372C334.544 273.398 335.296 274.861 335.806 276.762L338.675 287.472L333.251 288.926L330.605 279.05C330.201 277.543 329.566 276.52 328.702 275.982C327.86 275.437 326.836 275.326 325.631 275.649C324.773 275.879 324.046 276.273 323.45 276.83C322.871 277.358 322.484 278.045 322.289 278.893C322.116 279.734 322.186 280.734 322.496 281.893L324.975 291.143L319.55 292.597L314.537 273.889L319.718 272.5L321.107 277.681L319.714 276.378C320.051 274.946 320.755 273.726 321.827 272.718C322.898 271.71 324.234 270.992 325.834 270.564ZM354.408 290.785C352.646 291.257 350.883 291.493 349.119 291.494C347.385 291.511 345.858 291.237 344.538 290.672L345.651 286.199C346.613 286.637 347.746 286.88 349.051 286.928C350.386 286.993 351.644 286.867 352.826 286.55C354.75 286.034 356.026 285.233 356.654 284.145C357.305 283.052 357.404 281.659 356.951 279.966L356.196 277.15L355.286 272.362L353.949 267.651L352.868 263.618L358.015 262.239L362.189 277.817C363.121 281.295 362.903 284.098 361.536 286.229C360.169 288.359 357.793 289.878 354.408 290.785ZM351.449 283.08C349.71 283.546 348.035 283.598 346.422 283.235C344.826 282.842 343.419 282.089 342.201 280.974C341 279.83 340.157 278.354 339.673 276.546C339.182 274.714 339.174 273.014 339.648 271.446C340.139 269.849 340.981 268.493 342.173 267.378C343.388 266.257 344.865 265.464 346.604 264.998C348.18 264.576 349.658 264.528 351.038 264.854C352.411 265.157 353.614 265.89 354.646 267.055C355.673 268.196 356.465 269.81 357.024 271.896C357.577 273.959 357.698 275.753 357.386 277.278C357.068 278.78 356.393 280.016 355.361 280.988C354.33 281.961 353.026 282.658 351.449 283.08ZM351.335 278.34C352.285 278.086 353.081 277.674 353.724 277.104C354.36 276.511 354.794 275.811 355.025 275.004C355.256 274.196 355.25 273.341 355.008 272.437C354.759 271.509 354.336 270.765 353.739 270.205C353.135 269.621 352.413 269.243 351.572 269.071C350.724 268.876 349.825 268.906 348.875 269.16C347.924 269.415 347.131 269.839 346.495 270.432C345.852 271.001 345.404 271.693 345.15 272.506C344.913 273.29 344.918 274.146 345.167 275.073C345.409 275.978 345.832 276.721 346.436 277.305C347.062 277.882 347.8 278.269 348.647 278.464C349.488 278.636 350.384 278.595 351.335 278.34Z" fill="#F97316"/>
<path d="M103.04 413.762L96.1268 387.96L101.551 386.507L108.465 412.309L103.04 413.762ZM113.5 410.96L108.487 392.251L113.911 390.798L118.924 409.506L113.5 410.96ZM110.5 388.917C109.503 389.184 108.614 389.111 107.833 388.7C107.052 388.288 106.546 387.653 106.317 386.795C106.087 385.937 106.207 385.135 106.678 384.388C107.148 383.64 107.882 383.133 108.879 382.866C109.876 382.599 110.762 382.66 111.537 383.048C112.306 383.414 112.805 384.026 113.035 384.883C113.277 385.787 113.166 386.625 112.701 387.395C112.254 388.136 111.52 388.643 110.5 388.917ZM130.327 406.749C128.728 407.177 127.136 407.405 125.553 407.432C123.987 407.429 122.698 407.253 121.685 406.903L122.449 402.524C123.45 402.827 124.576 402.997 125.829 403.034C127.098 403.042 128.3 402.894 129.436 402.59C130.688 402.254 131.529 401.867 131.958 401.429C132.41 400.985 132.565 400.496 132.422 399.963C132.304 399.523 132.009 399.254 131.536 399.157C131.079 399.031 130.5 399 129.796 399.064C129.093 399.129 128.32 399.211 127.478 399.313C126.658 399.408 125.818 399.472 124.957 399.504C124.09 399.512 123.267 399.41 122.489 399.196C121.711 398.982 121.024 398.595 120.426 398.034C119.852 397.468 119.422 396.651 119.136 395.585C118.82 394.402 118.876 393.269 119.306 392.185C119.76 391.094 120.567 390.12 121.728 389.262C122.884 388.381 124.366 387.699 126.174 387.214C127.449 386.872 128.784 386.664 130.18 386.588C131.576 386.512 132.786 386.623 133.81 386.92L133.036 391.264C131.989 390.973 130.977 390.859 130 390.922C129.04 390.956 128.131 391.087 127.273 391.317C126.068 391.64 125.23 392.039 124.761 392.512C124.291 392.986 124.125 393.478 124.262 393.988C124.386 394.451 124.676 394.746 125.132 394.873C125.612 394.993 126.206 395.032 126.916 394.991C127.625 394.95 128.39 394.882 129.209 394.786C130.045 394.662 130.897 394.595 131.764 394.586C132.632 394.578 133.443 394.683 134.197 394.903C134.969 395.094 135.654 395.47 136.251 396.03C136.842 396.568 137.281 397.369 137.566 398.436C137.877 399.595 137.806 400.72 137.352 401.81C136.893 402.877 136.071 403.843 134.886 404.707C133.725 405.565 132.205 406.246 130.327 406.749ZM150.157 401.435C147.954 402.026 146.09 401.929 144.563 401.145C143.03 400.339 141.965 398.822 141.369 396.597L136.971 380.184L142.396 378.73L146.775 395.074C146.986 395.862 147.359 396.421 147.895 396.749C148.424 397.055 149.048 397.111 149.766 396.919C150.624 396.689 151.292 396.261 151.771 395.636L154.256 399.07C153.805 399.613 153.214 400.094 152.482 400.514C151.766 400.905 150.991 401.212 150.157 401.435ZM136.424 389.685L135.306 385.513L148.276 382.037L149.394 386.21L136.424 389.685ZM166.325 397.103C164.192 397.675 162.203 397.76 160.357 397.361C158.533 396.955 156.989 396.151 155.723 394.95C154.45 393.725 153.566 392.186 153.069 390.331C152.566 388.454 152.55 386.681 153.023 385.014C153.513 383.317 154.402 381.862 155.692 380.647C156.975 379.408 158.567 378.534 160.468 378.025C162.299 377.534 164.051 377.487 165.722 377.884C167.411 378.252 168.88 379.051 170.129 380.281C171.372 381.489 172.264 383.101 172.804 385.118C172.86 385.326 172.914 385.573 172.965 385.857C173.01 386.119 173.052 386.368 173.091 386.606L157.895 390.678L157.047 387.514L169.392 384.206L167.557 385.704C167.296 384.73 166.872 383.937 166.286 383.324C165.699 382.711 165.005 382.3 164.204 382.093C163.397 381.862 162.529 381.87 161.602 382.119C160.675 382.367 159.908 382.797 159.301 383.406C158.711 383.987 158.318 384.701 158.123 385.548C157.922 386.372 157.954 387.283 158.221 388.28L158.445 389.114C158.718 390.134 159.181 390.98 159.833 391.65C160.501 392.29 161.297 392.711 162.22 392.911C163.16 393.081 164.187 393.017 165.3 392.719C166.296 392.452 167.125 392.068 167.786 391.568C168.471 391.062 169.045 390.424 169.51 389.653L173.234 392.009C172.637 393.213 171.761 394.255 170.606 395.136C169.444 395.994 168.018 396.65 166.325 397.103ZM185.187 371.402C186.67 371.004 188.073 370.951 189.393 371.243C190.731 371.506 191.9 372.162 192.902 373.21C193.897 374.236 194.649 375.699 195.159 377.6L198.029 388.31L192.604 389.764L189.958 379.888C189.554 378.381 188.92 377.358 188.055 376.82C187.213 376.275 186.19 376.164 184.984 376.487C184.126 376.717 183.4 377.111 182.803 377.668C182.224 378.196 181.837 378.883 181.642 379.731C181.47 380.572 181.539 381.572 181.849 382.731L184.328 391.981L178.903 393.435L173.89 374.727L179.072 373.338L180.46 378.519L179.067 377.216C179.404 375.784 180.108 374.564 181.18 373.556C182.252 372.548 183.587 371.83 185.187 371.402ZM202.946 386.992L197.933 368.284L203.358 366.831L208.37 385.539L202.946 386.992ZM199.946 364.95C198.95 365.217 198.061 365.144 197.279 364.733C196.498 364.321 195.993 363.686 195.763 362.828C195.533 361.97 195.653 361.168 196.124 360.421C196.595 359.673 197.328 359.166 198.325 358.899C199.322 358.632 200.208 358.693 200.983 359.081C201.752 359.447 202.251 360.059 202.481 360.916C202.723 361.82 202.612 362.658 202.148 363.428C201.7 364.169 200.966 364.676 199.946 364.95ZM219.688 362.157C221.172 361.759 222.574 361.707 223.895 361.999C225.232 362.262 226.402 362.917 227.404 363.966C228.399 364.991 229.151 366.454 229.66 368.355L232.53 379.065L227.106 380.519L224.459 370.643C224.056 369.136 223.421 368.114 222.557 367.575C221.715 367.03 220.691 366.92 219.486 367.243C218.628 367.472 217.901 367.866 217.305 368.423C216.726 368.951 216.339 369.639 216.143 370.486C215.971 371.327 216.041 372.328 216.351 373.487L218.83 382.736L213.405 384.19L208.392 365.482L213.573 364.094L214.962 369.275L213.569 367.971C213.906 366.539 214.61 365.319 215.682 364.311C216.753 363.304 218.089 362.585 219.688 362.157ZM248.263 382.378C246.501 382.85 244.738 383.087 242.974 383.087C241.24 383.105 239.713 382.831 238.393 382.265L239.506 377.793C240.468 378.23 241.601 378.473 242.906 378.521C244.241 378.586 245.499 378.46 246.681 378.143C248.605 377.628 249.881 376.826 250.509 375.739C251.16 374.645 251.259 373.252 250.806 371.56L250.051 368.743L249.141 363.955L247.804 359.245L246.723 355.211L251.87 353.832L256.044 369.411C256.976 372.888 256.758 375.692 255.391 377.822C254.024 379.953 251.648 381.471 248.263 382.378ZM245.304 374.674C243.565 375.139 241.89 375.191 240.277 374.828C238.681 374.436 237.274 373.682 236.056 372.567C234.855 371.423 234.012 369.947 233.528 368.139C233.037 366.308 233.029 364.608 233.503 363.04C233.994 361.442 234.836 360.086 236.028 358.971C237.243 357.851 238.72 357.057 240.459 356.591C242.035 356.169 243.513 356.121 244.893 356.447C246.266 356.75 247.469 357.484 248.501 358.648C249.528 359.789 250.32 361.403 250.879 363.489C251.432 365.553 251.553 367.347 251.241 368.871C250.922 370.373 250.248 371.61 249.216 372.582C248.184 373.554 246.881 374.251 245.304 374.674ZM245.189 369.934C246.14 369.679 246.936 369.267 247.579 368.697C248.215 368.104 248.649 367.404 248.88 366.597C249.11 365.79 249.105 364.934 248.863 364.03C248.614 363.103 248.191 362.359 247.594 361.798C246.99 361.215 246.268 360.837 245.426 360.665C244.579 360.469 243.68 360.499 242.73 360.754C241.779 361.008 240.986 361.432 240.35 362.025C239.707 362.595 239.259 363.286 239.005 364.1C238.768 364.884 238.773 365.739 239.022 366.667C239.264 367.571 239.687 368.315 240.291 368.898C240.917 369.476 241.654 369.862 242.502 370.058C243.343 370.23 244.239 370.188 245.189 369.934Z" fill="#F97316"/>
<path d="M293.325 363.074C291.123 363.664 289.258 363.567 287.731 362.783C286.198 361.977 285.134 360.461 284.537 358.235L280.14 341.822L285.564 340.369L289.943 356.712C290.155 357.5 290.528 358.059 291.063 358.387C291.592 358.693 292.216 358.749 292.935 358.557C293.792 358.327 294.461 357.899 294.939 357.274L297.425 360.708C296.974 361.251 296.382 361.733 295.65 362.153C294.935 362.543 294.16 362.85 293.325 363.074ZM279.592 351.324L278.474 347.151L291.444 343.675L292.562 347.848L279.592 351.324ZM304.619 367.278C303.645 367.539 302.643 367.646 301.612 367.599C300.58 367.552 299.692 367.343 298.946 366.972L299.894 362.581C300.411 362.84 300.964 363.002 301.553 363.068C302.165 363.127 302.738 363.086 303.271 362.943C304.036 362.738 304.589 362.391 304.93 361.902C305.301 361.43 305.56 360.727 305.707 359.793L306.066 357.237L306.325 356.534L308.712 338.601L313.928 337.204L310.799 359.323C310.6 360.992 310.221 362.36 309.663 363.429C309.128 364.492 308.431 365.325 307.574 365.927C306.74 366.523 305.755 366.973 304.619 367.278ZM306.132 360.127L292.578 342.925L298.176 341.424L308.837 355.339L306.132 360.127ZM332.287 352.634C330.711 353.056 329.238 353.078 327.87 352.699C326.501 352.321 325.291 351.514 324.24 350.28C323.206 349.017 322.397 347.296 321.813 345.117C321.223 342.914 321.051 341.022 321.298 339.44C321.545 337.859 322.167 336.562 323.163 335.549C324.158 334.537 325.479 333.81 327.125 333.369C328.887 332.897 330.572 332.881 332.181 333.319C333.806 333.728 335.217 334.543 336.413 335.763C337.633 336.977 338.504 338.557 339.026 340.504C339.554 342.475 339.593 344.291 339.143 345.952C338.717 347.606 337.903 349.017 336.7 350.184C335.52 351.345 334.049 352.162 332.287 352.634ZM322.962 362.065L316.142 336.61L321.323 335.222L322.348 339.047L323.735 344.639L325.564 350.075L328.387 360.611L322.962 362.065ZM330.156 348.434C331.06 348.192 331.804 347.769 332.387 347.166C332.994 346.556 333.404 345.812 333.616 344.936C333.845 344.029 333.817 343.043 333.531 341.977C333.239 340.887 332.771 340.019 332.125 339.372C331.503 338.719 330.777 338.28 329.946 338.055C329.139 337.824 328.283 337.83 327.379 338.072C326.475 338.314 325.72 338.74 325.113 339.35C324.506 339.96 324.096 340.703 323.884 341.58C323.672 342.457 323.712 343.44 324.003 344.53C324.289 345.596 324.746 346.467 325.375 347.144C325.997 347.797 326.723 348.236 327.554 348.461C328.384 348.685 329.252 348.677 330.156 348.434ZM345.163 348.885L340.151 330.177L345.575 328.724L350.588 347.432L345.163 348.885ZM342.164 326.843C341.167 327.11 340.278 327.037 339.497 326.626C338.716 326.214 338.21 325.579 337.98 324.721C337.751 323.863 337.871 323.061 338.342 322.314C338.812 321.566 339.546 321.059 340.543 320.792C341.54 320.525 342.426 320.586 343.201 320.974C343.969 321.34 344.469 321.951 344.698 322.809C344.941 323.713 344.83 324.551 344.365 325.321C343.918 326.062 343.184 326.569 342.164 326.843ZM361.906 324.05C363.39 323.652 364.792 323.6 366.112 323.892C367.45 324.155 368.62 324.81 369.621 325.859C370.616 326.884 371.369 328.347 371.878 330.248L374.748 340.958L369.323 342.412L366.677 332.536C366.273 331.029 365.639 330.007 364.774 329.468C363.932 328.923 362.909 328.813 361.703 329.136C360.846 329.365 360.119 329.759 359.523 330.316C358.944 330.844 358.556 331.532 358.361 332.379C358.189 333.22 358.258 334.221 358.569 335.38L361.047 344.629L355.623 346.083L350.61 327.375L355.791 325.987L357.179 331.168L355.786 329.864C356.123 328.432 356.827 327.212 357.899 326.204C358.971 325.197 360.306 324.478 361.906 324.05ZM390.481 344.271C388.719 344.743 386.956 344.98 385.192 344.98C383.457 344.998 381.93 344.724 380.611 344.158L381.723 339.686C382.685 340.123 383.819 340.366 385.124 340.414C386.458 340.479 387.716 340.353 388.899 340.036C390.823 339.521 392.099 338.719 392.727 337.632C393.378 336.538 393.477 335.145 393.023 333.453L392.268 330.636L391.358 325.848L390.022 321.138L388.941 317.104L394.087 315.725L398.261 331.304C399.193 334.781 398.975 337.585 397.608 339.715C396.241 341.846 393.865 343.364 390.481 344.271ZM387.522 336.567C385.783 337.032 384.107 337.084 382.494 336.721C380.898 336.329 379.491 335.575 378.273 334.46C377.072 333.316 376.23 331.84 375.745 330.032C375.254 328.2 375.246 326.501 375.72 324.933C376.212 323.335 377.053 321.979 378.246 320.864C379.461 319.744 380.938 318.95 382.677 318.484C384.253 318.062 385.731 318.014 387.11 318.34C388.483 318.643 389.686 319.377 390.719 320.541C391.745 321.682 392.538 323.296 393.097 325.382C393.65 327.446 393.77 329.24 393.458 330.764C393.14 332.266 392.465 333.503 391.434 334.475C390.402 335.447 389.098 336.144 387.522 336.567ZM387.407 331.827C388.357 331.572 389.154 331.16 389.796 330.59C390.433 329.997 390.866 329.297 391.097 328.49C391.328 327.683 391.322 326.827 391.08 325.923C390.832 324.996 390.409 324.252 389.811 323.691C389.208 323.108 388.485 322.73 387.644 322.558C386.797 322.362 385.898 322.392 384.947 322.647C383.997 322.901 383.203 323.325 382.567 323.918C381.925 324.488 381.476 325.179 381.222 325.993C380.985 326.777 380.991 327.632 381.239 328.56C381.482 329.464 381.904 330.208 382.508 330.791C383.135 331.369 383.872 331.755 384.719 331.951C385.561 332.123 386.457 332.081 387.407 331.827Z" fill="#F97316"/>
</g>
<defs>
<linearGradient id="paint0_linear_1359_3898" x1="360" y1="180" x2="0" y2="180" gradientUnits="userSpaceOnUse">
<stop stop-color="#C2410C"/>
<stop offset="1" stop-color="#F97316"/>
</linearGradient>
<clipPath id="clip0_1359_3898">
<rect width="360" height="360" rx="180" fill="white"/>
</clipPath>
</defs>
</svg>
